<svg id="レイヤー_1" data-name="レイヤー 1" xmlns="http://www.w3.org/2000/svg" width="200" height="200" viewBox="0 0 200 200">
  <title>about</title>
  <path d="M172.25,9.69H27.76a27.69,27.69,0,0,0-24,41.59L76,176.41a27.7,27.7,0,0,0,48,0L196.23,51.28a27.65,27.65,0,0,0-24-41.59m-39.2,97.11v18.09H67.34c.47-16.7,8.51-28.73,18.42-36.09,5.26-4,10.91-7.47,16.12-11.63,5.47-4.37,8.62-8.32,8.86-12-.24-6.58-4.61-9.4-10.25-9.4-5.34,0-10.66,3.59-11.19,11.72H68.05a29.05,29.05,0,0,1,6.5-18.22c5.65-7,16.08-10.56,26.52-10.56q12.87,0,21.35,6.5t9,19.37c-.31,6.65-2.25,12.44-6,17.17-3.36,4.22-7.69,7.46-13.87,10.87-6,3.32-11.33,6.51-14.55,9.71a11,11,0,0,0-2.72,4.42Zm-93-22.32a4.22,4.22,0,0,1-5.8-1.54S13,46.07,12.9,46a17.45,17.45,0,0,1-2.23-8.55A17.11,17.11,0,0,1,27.76,20.3H79.14c.21-2.61.68-4.75,1.37-5.48C82.59,12.76,100,22,100,24.55s-17.42,11.78-19.5,9.69c-.69-.68-1.16-2.83-1.37-5.42H27.76a8.63,8.63,0,0,0-7.47,12.92L41.62,78.66a4.21,4.21,0,0,1-1.56,5.82m108.49,28.28-33.73,58.37a17.12,17.12,0,0,1-23.37,6.26,16.6,16.6,0,0,1-6.27-6.26l-31.94-55.3c-2.4,1.11-4.48,1.78-5.38,1.53-2.91-.8-3.61-20.44-1.38-21.72s18.88,9.14,18.14,12c-.28.92-1.91,2.4-4.05,3.94l2.87,5a55,55,0,0,0-.84,8.2l-.14,4.88H71c9.34,16.16,21.55,37.26,21.55,37.26A8.16,8.16,0,0,0,95.69,170a8.6,8.6,0,0,0,11.75-3.11,1.26,1.26,0,0,0,0,.22c.41-.9,1.26-2.36,2.89-5.21l18.64-32.27h8.86V114.29l3.34-5.76A4.28,4.28,0,0,1,147,107a4.33,4.33,0,0,1,1.57,5.8M187.06,46,167.48,79.86c2.15,1.53,3.76,3,4,4,.77,2.86-15.9,13.31-18.13,12s-1.52-21,1.37-21.75c1-.23,3,.41,5.39,1.54,7-12.13,19.58-33.89,19.58-33.89a8.63,8.63,0,0,0-7.46-12.92H117.06a4.26,4.26,0,0,1,0-8.52h55.19a17.1,17.1,0,0,1,17.1,17.12,17.41,17.41,0,0,1-2.29,8.6"/>
</svg>