<svg id="レイヤー_1" data-name="レイヤー 1" xmlns="http://www.w3.org/2000/svg" width="200" height="200" viewBox="0 0 200 200">
  <title>contents</title>
  <path d="M69.57,16.43V69.57H16.43V16.43H69.57M73.3,0H12.7A12.71,12.71,0,0,0,0,12.7V73.3A12.71,12.71,0,0,0,12.7,86H73.3A12.71,12.71,0,0,0,86,73.3V12.7A12.71,12.71,0,0,0,73.3,0Z"/>
  <path d="M183.57,16.43V69.57H130.43V16.43h53.14M187.3,0H126.7A12.71,12.71,0,0,0,114,12.7V73.3A12.71,12.71,0,0,0,126.7,86h60.6A12.71,12.71,0,0,0,200,73.3V12.7A12.71,12.71,0,0,0,187.3,0Z"/>
  <path d="M69.57,130.43v53.14H16.43V130.43H69.57M73.3,114H12.7A12.71,12.71,0,0,0,0,126.7v60.6A12.71,12.71,0,0,0,12.7,200H73.3A12.71,12.71,0,0,0,86,187.3V126.7A12.71,12.71,0,0,0,73.3,114Z"/>
  <path d="M183.57,130.43v53.14H130.43V130.43h53.14M187.3,114H126.7A12.71,12.71,0,0,0,114,126.7v60.6A12.71,12.71,0,0,0,126.7,200h60.6A12.71,12.71,0,0,0,200,187.3V126.7A12.71,12.71,0,0,0,187.3,114Z"/>
</svg>