<svg id="レイヤー_1" data-name="レイヤー 1" xmlns="http://www.w3.org/2000/svg" width="200" height="200" viewBox="0 0 200 200">
  <title>insta</title>
  <path d="M199.4,58.77c-.49-10.64-2.18-17.91-4.65-24.27a49.05,49.05,0,0,0-11.53-17.72A49.05,49.05,0,0,0,165.5,5.25C159.14,2.78,151.87,1.09,141.23.6S127.16,0,100,0,69.44.12,58.77.6,40.86,2.78,34.5,5.25A49.05,49.05,0,0,0,16.78,16.78,49.05,49.05,0,0,0,5.25,34.5C2.78,40.86,1.09,48.13.6,58.77S0,72.84,0,100s.11,30.56.6,41.23,2.18,17.91,4.65,24.27a49.05,49.05,0,0,0,11.53,17.72A49.05,49.05,0,0,0,34.5,194.75c6.36,2.47,13.63,4.16,24.27,4.65s14.07.6,41.23.6,30.56-.11,41.23-.6,17.91-2.18,24.27-4.65a51.06,51.06,0,0,0,29.25-29.25c2.47-6.36,4.16-13.63,4.65-24.27s.6-14.07.6-41.23S199.89,69.44,199.4,58.77Zm-17.88,81.7c-.44,9.76-2.08,15.07-3.45,18.6a33.17,33.17,0,0,1-19,19c-3.53,1.37-8.84,3-18.6,3.45-10.56.48-13.73.59-40.47.59s-29.91-.11-40.47-.59c-9.76-.44-15.07-2.08-18.6-3.45a30.86,30.86,0,0,1-11.51-7.49,30.86,30.86,0,0,1-7.49-11.51c-1.37-3.53-3-8.84-3.45-18.6-.48-10.56-.59-13.73-.59-40.47s.11-29.91.59-40.47c.44-9.76,2.08-15.07,3.45-18.6a30.86,30.86,0,0,1,7.49-11.51,30.86,30.86,0,0,1,11.51-7.49c3.53-1.37,8.84-3,18.6-3.45,10.56-.48,13.73-.59,40.47-.59s29.91.11,40.47.59c9.76.44,15.07,2.08,18.6,3.45a30.86,30.86,0,0,1,11.51,7.49,30.86,30.86,0,0,1,7.49,11.51c1.37,3.53,3,8.84,3.45,18.6.48,10.56.59,13.73.59,40.47S182,129.91,181.52,140.47ZM100,48.68A51.32,51.32,0,1,0,151.32,100,51.32,51.32,0,0,0,100,48.68Zm0,84.74A33.42,33.42,0,1,1,133.42,100,33.42,33.42,0,0,1,100,133.42Zm53.29-98.68a12,12,0,1,0,12,12A12,12,0,0,0,153.29,34.74Z"/>
</svg>