<svg id="レイヤー_1" data-name="レイヤー 1" xmlns="http://www.w3.org/2000/svg" width="200" height="200" viewBox="0 0 200 200">
  <title>login</title>
  <path d="M149.18,0h-68a26.17,26.17,0,0,0-26.1,25.9L54.66,76a7.89,7.89,0,0,0,7.84,8h.06a7.9,7.9,0,0,0,7.9-7.84L70.86,26A10.33,10.33,0,0,1,81.16,15.8h68A10.17,10.17,0,0,1,159.33,26V174a10.17,10.17,0,0,1-10.15,10.16h-68A10.17,10.17,0,0,1,71,174V128.1a7.9,7.9,0,0,0-15.8,0V174a26,26,0,0,0,26,26h68a26,26,0,0,0,26-26V26A26,26,0,0,0,149.18,0Z"/>
  <path d="M135.41,105.69a7.91,7.91,0,0,0-1.81-8.64L101,65.33a7.9,7.9,0,0,0-11,11.34l18.68,18.14H32.76a7.91,7.91,0,0,0,0,15.81h95.33A7.9,7.9,0,0,0,135.41,105.69Z"/>
</svg>