<svg id="レイヤー_1" data-name="レイヤー 1" xmlns="http://www.w3.org/2000/svg" width="200" height="200" viewBox="0 0 200 200">
  <defs>
    <style>
      .logo1 {
        fill: #db030d;
      }
      .logo2 {
        fill: #414b4c;
      }
    </style>
  </defs>
  <title>logo</title>
  <g>
    <path class="logo1" d="M26.53,82.92H4.28A4.28,4.28,0,0,0,0,87.19a4.21,4.21,0,0,0,.58,2.13L11.7,108.6a4.27,4.27,0,0,0,7.4,0L30.23,89.32a4.26,4.26,0,0,0-3.7-6.4m-6,15v2.79H10.37a7,7,0,0,1,2.84-5.56c.81-.61,1.68-1.15,2.48-1.79S17,92,17.06,91.47A1.42,1.42,0,0,0,15.48,90a1.73,1.73,0,0,0-1.72,1.81H10.48a4.52,4.52,0,0,1,1-2.81,5.29,5.29,0,0,1,4.09-1.63,5.24,5.24,0,0,1,3.29,1,3.71,3.71,0,0,1,1.39,3A4.42,4.42,0,0,1,19.32,94a6.72,6.72,0,0,1-2.13,1.68,11.21,11.21,0,0,0-2.25,1.49,1.62,1.62,0,0,0-.41.68ZM6.17,94.44a.65.65,0,0,1-.89-.24L2,88.5a2.6,2.6,0,0,1-.35-1.31,2.64,2.64,0,0,1,2.64-2.64h7.91a1.74,1.74,0,0,1,.21-.84c.32-.32,3,1.1,3,1.49s-2.69,1.82-3,1.5a1.74,1.74,0,0,1-.21-.84H4.28A1.34,1.34,0,0,0,3,87.19a1.28,1.28,0,0,0,.18.66l3.28,5.69a.65.65,0,0,1-.24.9m16.71,4.35-5.19,9a2.64,2.64,0,0,1-3.6,1,2.51,2.51,0,0,1-1-1L8.2,99.27a1.68,1.68,0,0,1-.83.23c-.45-.12-.55-3.15-.21-3.34S10.07,97.56,10,98a1.9,1.9,0,0,1-.63.6l.44.77a8.67,8.67,0,0,0-.13,1.26l0,.75h1.32l3.32,5.74a1.23,1.23,0,0,0,.48.48,1.32,1.32,0,0,0,1.81-.48.23.23,0,0,0,0,0c.07-.14.2-.37.45-.81l2.87-5h1.37V99l.51-.89a.67.67,0,0,1,.9-.24.65.65,0,0,1,.24.89m5.93-10.28-3,5.21c.33.24.58.46.62.61.12.44-2.45,2-2.79,1.86s-.24-3.24.21-3.35a1.68,1.68,0,0,1,.83.23l3-5.22a1.28,1.28,0,0,0,.18-.66,1.34,1.34,0,0,0-1.33-1.33H18a.66.66,0,0,1,0-1.31h8.5a2.64,2.64,0,0,1,2.64,2.64,2.57,2.57,0,0,1-.36,1.32"/>
    <polygon class="logo1" points="112.66 90.18 112.66 85.52 127.86 85.52 127.86 90.18 122.95 90.18 122.95 103.81 117.49 103.81 117.49 90.18 112.66 90.18"/>
    <polygon class="logo1" points="184.61 90.18 184.61 85.52 199.81 85.52 199.81 90.18 194.91 90.18 194.91 103.81 189.45 103.81 189.45 90.18 184.61 90.18"/>
    <path class="logo1" d="M132,85.52h8.88c4.2,0,6,2.46,6,5.33a4.43,4.43,0,0,1-2.5,4.22c1.12.57,1.72,1.81,2.57,4l1.85,4.77h-5.36l-1-2.66c-1.15-3.11-2-4.89-3.5-4.88h-1.49v7.55H132Zm7,7.93c1.76,0,2.79-.86,2.78-2.45s-1-2.4-2.67-2.39h-1.59v4.86Z"/>
    <polygon class="logo1" points="152.78 85.52 164.48 85.52 164.48 89.7 158.24 89.7 158.24 92.7 163.93 92.7 163.93 96.57 158.24 96.55 158.24 99.72 164.52 99.72 164.52 103.81 152.78 103.81 152.78 85.52"/>
    <polygon class="logo1" points="169.31 85.52 181.01 85.52 181.01 89.7 174.77 89.7 174.77 92.7 180.46 92.7 180.46 96.57 174.77 96.55 174.77 99.72 181.05 99.72 181.05 103.81 169.31 103.81 169.31 85.52"/>
    <path class="logo1" d="M103.69,97.92c0-1.09-1-1.29-1.5-1.4l-.16,0-1.24-.25a4.61,4.61,0,0,1-4.05-4.6c0-4.3,3.45-6.56,6.86-6.56a8.78,8.78,0,0,1,4.83,1.43c-.17.48-1.12,3.27-1.37,4a5.91,5.91,0,0,0-3.32-1.2c-.85,0-1.71.43-1.71,1.4s.89,1.15,1.36,1.27l1.53.39c2.79.7,4.15,2.34,4.15,5,0,4.33-3.56,6.3-6.87,6.3a13.4,13.4,0,0,1-5.94-1.52l1.56-4.43a6.23,6.23,0,0,0,3.92,1.72c1,0,2-.53,2-1.53"/>
    <path class="logo1" d="M61.13,94.18a1.21,1.21,0,0,1,1.23.83,6.13,6.13,0,0,1,.16,1.72v7.11h5.1V95.75A7.6,7.6,0,0,0,67,92.24c-.72-1.4-2.12-2.12-4.16-2.12a6,6,0,0,0-3.65,1.33l-.26.2V90.46H54.19v13.38h5.08V97.52a6.79,6.79,0,0,1,.27-2.26,1.54,1.54,0,0,1,1.59-1.08"/>
    <path class="logo1" d="M73.41,101.84a5.24,5.24,0,0,0,4.23,2,4.89,4.89,0,0,0,3.33-.93l.27-.22v1.13H86V85.52H80.93v5.34l-.25-.16a5.25,5.25,0,0,0-3-.79,5.59,5.59,0,0,0-4,1.47,6.87,6.87,0,0,0-1.94,5.29,8,8,0,0,0,1.62,5.17M79,93.94c1.11,0,2,1,2,2.85s-.94,2.88-2,2.88c-1.29,0-2.2-1-2.2-2.82s.93-2.91,2.25-2.91"/>
    <path class="logo1" d="M49.21,99.27H42.52l.35-.29c2.06-1.76,3.2-2.75,3.39-2.94,2-1.79,3-3.61,3-5.42a4.88,4.88,0,0,0-1.84-3.92,7.68,7.68,0,0,0-5.21-1.65c-2.5,0-4.32.68-5.43,2a8.27,8.27,0,0,0-1.57,4.25l4.93.46c.16-1.72.87-2.59,2.12-2.59,1.45,0,1.75.87,1.75,1.59A3.21,3.21,0,0,1,43,93c-.25.27-.94.86-2.1,1.81a23.52,23.52,0,0,0-4.62,4.73,10.31,10.31,0,0,0-1.54,4.32H49.21Z"/>
    <path class="logo2" d="M153.35,113.59c0,.23-.23.34-.55.34s-.58-.25-.67-.75h3.22v-.07a4.07,4.07,0,0,0,0-.46,2.88,2.88,0,0,0-.69-2,2.43,2.43,0,0,0-1.9-.8,2.46,2.46,0,0,0-1.91.8,2.91,2.91,0,0,0-.67,2,2.83,2.83,0,0,0,.68,2,2.41,2.41,0,0,0,1.91.81,2.44,2.44,0,0,0,2.52-1.79l0-.11h-2Zm-.54-2.23c.27,0,.48.2.64.6h-1.29c.16-.4.37-.6.65-.6"/>
    <path class="logo2" d="M170.44,113.59c-.05.23-.23.34-.54.34s-.59-.25-.68-.75h3.22v-.07a4.07,4.07,0,0,0,0-.46,2.88,2.88,0,0,0-.69-2,2.66,2.66,0,0,0-3.8,0,2.92,2.92,0,0,0-.68,2,2.79,2.79,0,0,0,.69,2,2.39,2.39,0,0,0,1.9.81,2.43,2.43,0,0,0,2.52-1.79l0-.11h-2Zm-.54-2.23c.27,0,.48.2.64.6h-1.29c.16-.4.38-.6.65-.6"/>
    <path class="logo2" d="M193,110.49a2.86,2.86,0,0,0-4,0,2.91,2.91,0,0,0-.74,2,3,3,0,0,0,.74,2,2.64,2.64,0,0,0,2,.81,2.61,2.61,0,0,0,2-.82,3.2,3.2,0,0,0,0-4.08m-1.36,2c0,1.21-.48,1.21-.64,1.21s-.64,0-.64-1.21.49-1.21.65-1.21.63,0,.63,1.21"/>
    <path class="logo2" d="M179.2,113.14c0-.43-.38-.51-.59-.55h-.06l-.48-.1a1.79,1.79,0,0,1-1.58-1.79,2.54,2.54,0,0,1,2.67-2.56,3.4,3.4,0,0,1,1.88.56c-.06.19-.43,1.27-.53,1.56a2.3,2.3,0,0,0-1.29-.47c-.34,0-.67.17-.67.55s.34.45.53.49l.6.16a1.86,1.86,0,0,1,1.61,1.94,2.48,2.48,0,0,1-2.67,2.46,5.29,5.29,0,0,1-2.32-.59c.08-.21.5-1.41.61-1.73a2.41,2.41,0,0,0,1.53.67c.38,0,.76-.2.76-.59"/>
    <path class="logo2" d="M165.14,112.07l-.49-.11c-.19,0-.37-.09-.37-.27s.29-.31.47-.31a2.08,2.08,0,0,1,1,.32l.08,0,.5-1.27-.06,0a3.17,3.17,0,0,0-1.59-.41,2.06,2.06,0,0,0-2.27,1.92c0,1,.95,1.29,1.36,1.37l.39.06.06,0c.21,0,.41.09.41.31s-.28.34-.54.34a2,2,0,0,1-1.21-.46l-.09-.06,0,.09-.49,1.24,0,.08.07,0a4.89,4.89,0,0,0,1.94.43c1.09,0,2.28-.58,2.28-1.85,0-.79-.46-1.27-1.4-1.48"/>
    <path class="logo2" d="M143.49,108.24h3.45a2.05,2.05,0,0,1,2.35,2.08,1.71,1.71,0,0,1-1,1.64c.44.22.67.7,1,1.55l.73,1.85H148l-.39-1c-.45-1.21-.78-1.91-1.36-1.9h-.58v2.94h-2.13v-7.12m2.7,3.09c.69,0,1.09-.33,1.09-1s-.38-.93-1-.93h-.62v1.9Z"/>
    <path class="logo2" d="M158.69,113.84a.47.47,0,0,1-.48-.32,2.45,2.45,0,0,1-.06-.67v-2.77h-2v3.15a2.92,2.92,0,0,0,.25,1.36,1.66,1.66,0,0,0,1.62.83,2.35,2.35,0,0,0,1.42-.52l.1-.08v.47h1.84v-5.21h-2v2.46a2.66,2.66,0,0,1-.1.88.6.6,0,0,1-.62.42"/>
    <path class="logo2" d="M185,111.58a.46.46,0,0,1,.48.32,2.24,2.24,0,0,1,.07.67v2.77h2v-3.15a2.94,2.94,0,0,0-.25-1.37,1.66,1.66,0,0,0-1.62-.82,2.29,2.29,0,0,0-1.42.52l-.1.07v-2.44h-1.84v7.19h2v-2.46a2.37,2.37,0,0,1,.11-.88.6.6,0,0,1,.61-.42"/>
    <path class="logo2" d="M199.37,110.73a2,2,0,0,0-1.65-.78,1.89,1.89,0,0,0-1.3.36l-.1.08V110h-1.85v7.13h2V115l.1.06a2.07,2.07,0,0,0,1.16.31,2.2,2.2,0,0,0,1.54-.57,2.67,2.67,0,0,0,.76-2.06,3.13,3.13,0,0,0-.63-2m-2.17,3.08c-.43,0-.76-.38-.76-1.11s.37-1.13.78-1.13.85.38.85,1.11-.36,1.13-.87,1.13"/>
  </g>
</svg>
