<svg id="レイヤー_1" data-name="レイヤー 1" xmlns="http://www.w3.org/2000/svg" width="200" height="200" viewBox="0 0 200 200">
  <title>my_page</title>
  <path d="M179,161.74c-12.94-5.6-48.44-17.09-49.83-17.54l-3.89-1.33v-9.52a2.37,2.37,0,0,1,.5-.59c2.58-1.36,14.58-8.67,17.93-27.49a19.65,19.65,0,0,0,9.82-7.74c3.91-5.55,6.94-14.58,4.38-21.3A13.76,13.76,0,0,0,153,69.78c2.77-16.5-1.21-39.22-12.91-52A55.22,55.22,0,0,0,100.3,0c-.1,0-.2,0-.3,0s-.2,0-.3,0A55.21,55.21,0,0,0,59.9,17.79C48.2,30.56,44.22,53.28,47,69.78a13.8,13.8,0,0,0-4.85,6.46C39.58,83,42.61,92,46.52,97.53a19.62,19.62,0,0,0,9.83,7.74c3.33,18.81,15.33,26.12,17.91,27.49.07.06.44.4.49.47v9.64L71,144.16c-1.5.49-37,12-49.94,17.58C4.13,169.05,1.37,186,2.28,193.87A6.91,6.91,0,0,0,9.14,200a7.09,7.09,0,0,0,.79,0A6.93,6.93,0,0,0,16,192.3c0-.13-1.31-12.76,10.51-17.87,12.34-5.33,48.34-17,48.82-17.15l8.56-2.92a6.93,6.93,0,0,0,4.67-6.55V133.23A14.77,14.77,0,0,0,81,120.7a2.87,2.87,0,0,0-.39-.2c-.34-.18-8.48-4.44-10.76-18-.46-2.71-1.31-7.77-5.71-9.59a3.59,3.59,0,0,0-.43-.14,6.78,6.78,0,0,0-2.81-.61.65.65,0,0,1-.14,0c-.38,0-1.4-.56-2.59-2.08-2.52-3.23-3.47-7.72-3.15-8.93l0-.08a5.82,5.82,0,0,0,.6-.14,6.6,6.6,0,0,0,1.5-.28A6.92,6.92,0,0,0,61.68,72c-3.89-12.24-1.06-34.5,8.42-44.84a41.28,41.28,0,0,1,29.15-13.3h.21a4.2,4.2,0,0,0,.51-.05,6.36,6.36,0,0,0,.77.05,41.2,41.2,0,0,1,29.16,13.3c9.48,10.34,12.31,32.6,8.42,44.84a6.92,6.92,0,0,0,4.49,8.69,6.52,6.52,0,0,0,1.49.28,6,6,0,0,0,.61.14v0c.34,1.27-.61,5.76-3.13,9-1.19,1.52-2.21,2.08-2.59,2.08h0a6.57,6.57,0,0,0-2.86.58,5.08,5.08,0,0,0-.51.17c-4.4,1.82-5.25,6.88-5.71,9.59-2.27,13.55-10.42,17.81-10.66,17.94l-.49.25a14.78,14.78,0,0,0-7.54,12.53v14.58a6.93,6.93,0,0,0,4.67,6.55l8.67,3c.36.12,36.37,11.78,48.71,17.11C184.89,179.37,184.1,191,184,192.3a6.93,6.93,0,0,0,6.09,7.66,7.09,7.09,0,0,0,.79,0,6.91,6.91,0,0,0,6.86-6.13C198.63,186,195.86,169.05,179,161.74Z"/>
</svg>