<svg id="レイヤー_1" data-name="レイヤー 1" xmlns="http://www.w3.org/2000/svg" width="200" height="200" viewBox="0 0 200 200">
  <title>online_store</title>
  <g>
    <path d="M198.63,37.39a6.83,6.83,0,0,0-5.48-2.75H37.39L32.84,11a6.85,6.85,0,0,0-6.73-5.56H6.85a6.86,6.86,0,0,0,0,13.71h13.6l17.92,93.2c1.41,10.12,9.92,28.9,32.4,28.9h98.94a6.86,6.86,0,1,0,0-13.71H70.77c-15.92,0-18.6-15.47-18.84-17.19,0-.13,0-.27-.07-.4L44.58,72.05H177l-4.62,15.66L64.26,103.61a6.85,6.85,0,1,0,2,13.55L178.7,100.63a6.86,6.86,0,0,0,5.58-4.84l15.44-52.36A6.84,6.84,0,0,0,198.63,37.39ZM42,58.35,40,48.35H184l-2.95,10Z"/>
    <path d="M55.88,151.89a21.35,21.35,0,1,0,21.35,21.35A21.35,21.35,0,0,0,55.88,151.89Zm0,29a7.64,7.64,0,1,1,7.65-7.64A7.65,7.65,0,0,1,55.88,180.88Z"/>
    <path d="M157.31,151.89a21.35,21.35,0,1,0,21.35,21.35A21.35,21.35,0,0,0,157.31,151.89Zm0,29a7.64,7.64,0,1,1,7.64-7.64A7.65,7.65,0,0,1,157.31,180.88Z"/>
  </g>
</svg>