<svg id="レイヤー_1" data-name="レイヤー 1" xmlns="http://www.w3.org/2000/svg" width="200" height="200" viewBox="0 0 200 200">
  <title>search</title>
  <g>
    <path fill="#fff" d="M177.77,77.61H130.22a58.09,58.09,0,0,1-3.72,13.62h51.27a8.63,8.63,0,0,1,8.62,8.61v64.54H154.28a5.7,5.7,0,0,0,.23-1.55V129.78a6,6,0,0,0-6-6h-36.2a6,6,0,0,0-6,6v33.05a6.11,6.11,0,0,0,.23,1.55h-37V127.61a57.83,57.83,0,0,1-13.62-2.29V178H200V99.84A22.23,22.23,0,0,0,177.77,77.61Z"/>
    <path fill="#fff" d="M72.32,116.33a47.23,47.23,0,1,0-33.94-14.46L2,138.25a6.81,6.81,0,0,0,9.63,9.63l37.61-37.61A46.87,46.87,0,0,0,72.32,116.33Zm0-80.71A33.55,33.55,0,1,1,38.77,69.17,33.59,33.59,0,0,1,72.32,35.62Z"/>
  </g>
</svg>