<svg xmlns="http://www.w3.org/2000/svg" style="display:none"><defs><style>.logo1{fill:#db030d}.logo2{fill:#414b4c}</style><style>.cls-1{fill:#666}</style></defs><symbol id="about" viewBox="0 0 200 200"><title>about</title><path d="M172.25 9.69H27.76a27.69 27.69 0 0 0-24 41.59L76 176.41a27.7 27.7 0 0 0 48 0l72.23-125.13a27.65 27.65 0 0 0-24-41.59m-39.2 97.11v18.09H67.34c.47-16.7 8.51-28.73 18.42-36.09 5.26-4 10.91-7.47 16.12-11.63 5.47-4.37 8.62-8.32 8.86-12-.24-6.58-4.61-9.4-10.25-9.4-5.34 0-10.66 3.59-11.19 11.72H68.05a29.05 29.05 0 0 1 6.5-18.22c5.65-7 16.08-10.56 26.52-10.56q12.87 0 21.35 6.5t9 19.37c-.31 6.65-2.25 12.44-6 17.17-3.36 4.22-7.69 7.46-13.87 10.87-6 3.32-11.33 6.51-14.55 9.71a11 11 0 0 0-2.72 4.42zm-93-22.32a4.22 4.22 0 0 1-5.8-1.54S13 46.07 12.9 46a17.45 17.45 0 0 1-2.23-8.55A17.11 17.11 0 0 1 27.76 20.3h51.38c.21-2.61.68-4.75 1.37-5.48C82.59 12.76 100 22 100 24.55s-17.42 11.78-19.5 9.69c-.69-.68-1.16-2.83-1.37-5.42H27.76a8.63 8.63 0 0 0-7.47 12.92l21.33 36.92a4.21 4.21 0 0 1-1.56 5.82m108.49 28.28l-33.73 58.37a17.12 17.12 0 0 1-23.37 6.26 16.6 16.6 0 0 1-6.27-6.26l-31.94-55.3c-2.4 1.11-4.48 1.78-5.38 1.53-2.91-.8-3.61-20.44-1.38-21.72s18.88 9.14 18.14 12c-.28.92-1.91 2.4-4.05 3.94l2.87 5a55 55 0 0 0-.84 8.2l-.14 4.88H71c9.34 16.16 21.55 37.26 21.55 37.26a8.16 8.16 0 0 0 3.14 3.08 8.6 8.6 0 0 0 11.75-3.11 1.26 1.26 0 0 0 0 .22c.41-.9 1.26-2.36 2.89-5.21l18.64-32.27h8.86v-15.34l3.34-5.76A4.28 4.28 0 0 1 147 107a4.33 4.33 0 0 1 1.57 5.8M187.06 46l-19.58 33.86c2.15 1.53 3.76 3 4 4 .77 2.86-15.9 13.31-18.13 12s-1.52-21 1.37-21.75c1-.23 3 .41 5.39 1.54 7-12.13 19.58-33.89 19.58-33.89a8.63 8.63 0 0 0-7.46-12.92h-55.17a4.26 4.26 0 0 1 0-8.52h55.19a17.1 17.1 0 0 1 17.1 17.12 17.41 17.41 0 0 1-2.29 8.6" id="about-01"/></symbol><symbol id="contents" viewBox="0 0 200 200"><title>contents</title><path d="M69.57 16.43v53.14H16.43V16.43h53.14M73.3 0H12.7A12.71 12.71 0 0 0 0 12.7v60.6A12.71 12.71 0 0 0 12.7 86h60.6A12.71 12.71 0 0 0 86 73.3V12.7A12.71 12.71 0 0 0 73.3 0zM183.57 16.43v53.14h-53.14V16.43h53.14M187.3 0h-60.6A12.71 12.71 0 0 0 114 12.7v60.6A12.71 12.71 0 0 0 126.7 86h60.6A12.71 12.71 0 0 0 200 73.3V12.7A12.71 12.71 0 0 0 187.3 0zM69.57 130.43v53.14H16.43v-53.14h53.14M73.3 114H12.7A12.71 12.71 0 0 0 0 126.7v60.6A12.71 12.71 0 0 0 12.7 200h60.6A12.71 12.71 0 0 0 86 187.3v-60.6A12.71 12.71 0 0 0 73.3 114zM183.57 130.43v53.14h-53.14v-53.14h53.14M187.3 114h-60.6a12.71 12.71 0 0 0-12.7 12.7v60.6a12.71 12.71 0 0 0 12.7 12.7h60.6a12.71 12.71 0 0 0 12.7-12.7v-60.6a12.71 12.71 0 0 0-12.7-12.7z" id="contents-01"/></symbol><symbol id="instagram" viewBox="0 0 200 200"><title>insta</title><path d="M199.4 58.77c-.49-10.64-2.18-17.91-4.65-24.27a49.05 49.05 0 0 0-11.53-17.72A49.05 49.05 0 0 0 165.5 5.25c-6.36-2.47-13.63-4.16-24.27-4.65S127.16 0 100 0 69.44.12 58.77.6 40.86 2.78 34.5 5.25a49.05 49.05 0 0 0-17.72 11.53A49.05 49.05 0 0 0 5.25 34.5C2.78 40.86 1.09 48.13.6 58.77S0 72.84 0 100s.11 30.56.6 41.23 2.18 17.91 4.65 24.27a49.05 49.05 0 0 0 11.53 17.72 49.05 49.05 0 0 0 17.72 11.53c6.36 2.47 13.63 4.16 24.27 4.65s14.07.6 41.23.6 30.56-.11 41.23-.6 17.91-2.18 24.27-4.65a51.06 51.06 0 0 0 29.25-29.25c2.47-6.36 4.16-13.63 4.65-24.27s.6-14.07.6-41.23-.11-30.56-.6-41.23zm-17.88 81.7c-.44 9.76-2.08 15.07-3.45 18.6a33.17 33.17 0 0 1-19 19c-3.53 1.37-8.84 3-18.6 3.45-10.56.48-13.73.59-40.47.59s-29.91-.11-40.47-.59c-9.76-.44-15.07-2.08-18.6-3.45a30.86 30.86 0 0 1-11.51-7.49 30.86 30.86 0 0 1-7.49-11.51c-1.37-3.53-3-8.84-3.45-18.6-.48-10.56-.59-13.73-.59-40.47s.11-29.91.59-40.47c.44-9.76 2.08-15.07 3.45-18.6a30.86 30.86 0 0 1 7.49-11.51 30.86 30.86 0 0 1 11.51-7.49c3.53-1.37 8.84-3 18.6-3.45 10.56-.48 13.73-.59 40.47-.59s29.91.11 40.47.59c9.76.44 15.07 2.08 18.6 3.45a30.86 30.86 0 0 1 11.51 7.49 30.86 30.86 0 0 1 7.49 11.51c1.37 3.53 3 8.84 3.45 18.6.48 10.56.59 13.73.59 40.47s-.11 29.91-.59 40.47zM100 48.68A51.32 51.32 0 1 0 151.32 100 51.32 51.32 0 0 0 100 48.68zm0 84.74A33.42 33.42 0 1 1 133.42 100 33.42 33.42 0 0 1 100 133.42zm53.29-98.68a12 12 0 1 0 12 12 12 12 0 0 0-12-12z" id="instagram-01"/></symbol><symbol id="link" viewBox="0 0 200 200"><title>link</title><path d="M182.42 40.58v85.72H50.55V40.58h131.87M200 23H33v120.88h167V23z" id="link-01"/><path d="M0 73v103h167v-17.53H17.58V73zm167 85.47" id="link-02"/></symbol><symbol id="login" viewBox="0 0 200 200"><title>login</title><path d="M149.18 0h-68a26.17 26.17 0 0 0-26.1 25.9L54.66 76a7.89 7.89 0 0 0 7.84 8h.06a7.9 7.9 0 0 0 7.9-7.84l.4-50.16a10.33 10.33 0 0 1 10.3-10.2h68A10.17 10.17 0 0 1 159.33 26v148a10.17 10.17 0 0 1-10.15 10.16h-68A10.17 10.17 0 0 1 71 174v-45.9a7.9 7.9 0 0 0-15.8 0V174a26 26 0 0 0 26 26h68a26 26 0 0 0 26-26V26a26 26 0 0 0-26.02-26z" id="login-01"/><path d="M135.41 105.69a7.91 7.91 0 0 0-1.81-8.64L101 65.33a7.9 7.9 0 0 0-11 11.34l18.68 18.14H32.76a7.91 7.91 0 0 0 0 15.81h95.33a7.9 7.9 0 0 0 7.32-4.93z" id="login-02"/></symbol><symbol id="logo" viewBox="0 0 200 200"><title>logo</title><path class="logo1" d="M26.53 82.92H4.28A4.28 4.28 0 0 0 0 87.19a4.21 4.21 0 0 0 .58 2.13L11.7 108.6a4.27 4.27 0 0 0 7.4 0l11.13-19.28a4.26 4.26 0 0 0-3.7-6.4m-6 15v2.79H10.37a7 7 0 0 1 2.84-5.56c.81-.61 1.68-1.15 2.48-1.79S17 92 17.06 91.47A1.42 1.42 0 0 0 15.48 90a1.73 1.73 0 0 0-1.72 1.81h-3.28a4.52 4.52 0 0 1 1-2.81 5.29 5.29 0 0 1 4.09-1.63 5.24 5.24 0 0 1 3.29 1 3.71 3.71 0 0 1 1.39 3 4.42 4.42 0 0 1-.93 2.63 6.72 6.72 0 0 1-2.13 1.68 11.21 11.21 0 0 0-2.25 1.49 1.62 1.62 0 0 0-.41.68zM6.17 94.44a.65.65 0 0 1-.89-.24L2 88.5a2.6 2.6 0 0 1-.35-1.31 2.64 2.64 0 0 1 2.64-2.64h7.91a1.74 1.74 0 0 1 .21-.84c.32-.32 3 1.1 3 1.49s-2.69 1.82-3 1.5a1.74 1.74 0 0 1-.21-.84H4.28A1.34 1.34 0 0 0 3 87.19a1.28 1.28 0 0 0 .18.66l3.28 5.69a.65.65 0 0 1-.24.9m16.71 4.35l-5.19 9a2.64 2.64 0 0 1-3.6 1 2.51 2.51 0 0 1-1-1L8.2 99.27a1.68 1.68 0 0 1-.83.23c-.45-.12-.55-3.15-.21-3.34S10.07 97.56 10 98a1.9 1.9 0 0 1-.63.6l.44.77a8.67 8.67 0 0 0-.13 1.26v.75H11l3.32 5.74a1.23 1.23 0 0 0 .48.48 1.32 1.32 0 0 0 1.81-.48c.07-.14.2-.37.45-.81l2.87-5h1.37V99l.51-.89a.67.67 0 0 1 .9-.24.65.65 0 0 1 .24.89m5.93-10.28l-3 5.21c.33.24.58.46.62.61.12.44-2.45 2-2.79 1.86s-.24-3.24.21-3.35a1.68 1.68 0 0 1 .83.23l3-5.22a1.28 1.28 0 0 0 .18-.66 1.34 1.34 0 0 0-1.33-1.33H18a.66.66 0 0 1 0-1.31h8.5a2.64 2.64 0 0 1 2.64 2.64 2.57 2.57 0 0 1-.36 1.32M112.66 90.18v-4.66h15.2v4.66h-4.91v13.63h-5.46V90.18h-4.83zM184.61 90.18v-4.66h15.2v4.66h-4.9v13.63h-5.46V90.18h-4.84zM132 85.52h8.88c4.2 0 6 2.46 6 5.33a4.43 4.43 0 0 1-2.5 4.22c1.12.57 1.72 1.81 2.57 4l1.85 4.77h-5.36l-1-2.66c-1.15-3.11-2-4.89-3.5-4.88h-1.49v7.55H132zm7 7.93c1.76 0 2.79-.86 2.78-2.45s-1-2.4-2.67-2.39h-1.59v4.86zM152.78 85.52h11.7v4.18h-6.24v3h5.69v3.87l-5.69-.02v3.17h6.28v4.09h-11.74V85.52zM169.31 85.52h11.7v4.18h-6.24v3h5.69v3.87l-5.69-.02v3.17h6.28v4.09h-11.74V85.52zM103.69 97.92c0-1.09-1-1.29-1.5-1.4h-.16l-1.24-.25a4.61 4.61 0 0 1-4.05-4.6c0-4.3 3.45-6.56 6.86-6.56a8.78 8.78 0 0 1 4.83 1.43c-.17.48-1.12 3.27-1.37 4a5.91 5.91 0 0 0-3.32-1.2c-.85 0-1.71.43-1.71 1.4s.89 1.15 1.36 1.27l1.53.39c2.79.7 4.15 2.34 4.15 5 0 4.33-3.56 6.3-6.87 6.3a13.4 13.4 0 0 1-5.94-1.52l1.56-4.43a6.23 6.23 0 0 0 3.92 1.72c1 0 2-.53 2-1.53M61.13 94.18a1.21 1.21 0 0 1 1.23.83 6.13 6.13 0 0 1 .16 1.72v7.11h5.1v-8.09a7.6 7.6 0 0 0-.62-3.51c-.72-1.4-2.12-2.12-4.16-2.12a6 6 0 0 0-3.65 1.33l-.26.2v-1.19h-4.74v13.38h5.08v-6.32a6.79 6.79 0 0 1 .27-2.26 1.54 1.54 0 0 1 1.59-1.08M73.41 101.84a5.24 5.24 0 0 0 4.23 2 4.89 4.89 0 0 0 3.33-.93l.27-.22v1.13H86v-18.3h-5.07v5.34l-.25-.16a5.25 5.25 0 0 0-3-.79 5.59 5.59 0 0 0-4 1.47 6.87 6.87 0 0 0-1.94 5.29 8 8 0 0 0 1.62 5.17m5.64-7.9c1.11 0 2 1 2 2.85s-.94 2.88-2 2.88c-1.29 0-2.2-1-2.2-2.82s.93-2.91 2.25-2.91M49.21 99.27h-6.69l.35-.29c2.06-1.76 3.2-2.75 3.39-2.94 2-1.79 3-3.61 3-5.42a4.88 4.88 0 0 0-1.84-3.92 7.68 7.68 0 0 0-5.21-1.65c-2.5 0-4.32.68-5.43 2a8.27 8.27 0 0 0-1.57 4.25l4.93.46c.16-1.72.87-2.59 2.12-2.59 1.45 0 1.75.87 1.75 1.59A3.21 3.21 0 0 1 43 93c-.25.27-.94.86-2.1 1.81a23.52 23.52 0 0 0-4.62 4.73 10.31 10.31 0 0 0-1.54 4.32h14.47z" id="logo-01"/><path class="logo2" d="M153.35 113.59c0 .23-.23.34-.55.34s-.58-.25-.67-.75h3.22v-.07a4.07 4.07 0 0 0 0-.46 2.88 2.88 0 0 0-.69-2 2.43 2.43 0 0 0-1.9-.8 2.46 2.46 0 0 0-1.91.8 2.91 2.91 0 0 0-.67 2 2.83 2.83 0 0 0 .68 2 2.41 2.41 0 0 0 1.91.81 2.44 2.44 0 0 0 2.52-1.79v-.11h-2zm-.54-2.23c.27 0 .48.2.64.6h-1.29c.16-.4.37-.6.65-.6M170.44 113.59c-.05.23-.23.34-.54.34s-.59-.25-.68-.75h3.22v-.07a4.07 4.07 0 0 0 0-.46 2.88 2.88 0 0 0-.69-2 2.66 2.66 0 0 0-3.8 0 2.92 2.92 0 0 0-.68 2 2.79 2.79 0 0 0 .69 2 2.39 2.39 0 0 0 1.9.81 2.43 2.43 0 0 0 2.52-1.79v-.11h-2zm-.54-2.23c.27 0 .48.2.64.6h-1.29c.16-.4.38-.6.65-.6M193 110.49a2.86 2.86 0 0 0-4 0 2.91 2.91 0 0 0-.74 2 3 3 0 0 0 .74 2 2.64 2.64 0 0 0 2 .81 2.61 2.61 0 0 0 2-.82 3.2 3.2 0 0 0 0-4.08m-1.36 2c0 1.21-.48 1.21-.64 1.21s-.64 0-.64-1.21.49-1.21.65-1.21.63 0 .63 1.21M179.2 113.14c0-.43-.38-.51-.59-.55h-.06l-.48-.1a1.79 1.79 0 0 1-1.58-1.79 2.54 2.54 0 0 1 2.67-2.56 3.4 3.4 0 0 1 1.88.56c-.06.19-.43 1.27-.53 1.56a2.3 2.3 0 0 0-1.29-.47c-.34 0-.67.17-.67.55s.34.45.53.49l.6.16a1.86 1.86 0 0 1 1.61 1.94 2.48 2.48 0 0 1-2.67 2.46 5.29 5.29 0 0 1-2.32-.59c.08-.21.5-1.41.61-1.73a2.41 2.41 0 0 0 1.53.67c.38 0 .76-.2.76-.59M165.14 112.07l-.49-.11c-.19 0-.37-.09-.37-.27s.29-.31.47-.31a2.08 2.08 0 0 1 1 .32h.08l.5-1.27h-.06a3.17 3.17 0 0 0-1.59-.41 2.06 2.06 0 0 0-2.27 1.92c0 1 .95 1.29 1.36 1.37l.39.06h.06c.21 0 .41.09.41.31s-.28.34-.54.34a2 2 0 0 1-1.21-.46l-.09-.06v.09l-.49 1.24v.08h.07a4.89 4.89 0 0 0 1.94.43c1.09 0 2.28-.58 2.28-1.85 0-.79-.46-1.27-1.4-1.48M143.49 108.24h3.45a2.05 2.05 0 0 1 2.35 2.08 1.71 1.71 0 0 1-1 1.64c.44.22.67.7 1 1.55l.73 1.85H148l-.39-1c-.45-1.21-.78-1.91-1.36-1.9h-.58v2.94h-2.13v-7.12m2.7 3.09c.69 0 1.09-.33 1.09-1s-.38-.93-1-.93h-.62v1.9zM158.69 113.84a.47.47 0 0 1-.48-.32 2.45 2.45 0 0 1-.06-.67v-2.77h-2v3.15a2.92 2.92 0 0 0 .25 1.36 1.66 1.66 0 0 0 1.62.83 2.35 2.35 0 0 0 1.42-.52l.1-.08v.47h1.84v-5.21h-2v2.46a2.66 2.66 0 0 1-.1.88.6.6 0 0 1-.62.42M185 111.58a.46.46 0 0 1 .48.32 2.24 2.24 0 0 1 .07.67v2.77h2v-3.15a2.94 2.94 0 0 0-.25-1.37 1.66 1.66 0 0 0-1.62-.82 2.29 2.29 0 0 0-1.42.52l-.1.07v-2.44h-1.84v7.19h2v-2.46a2.37 2.37 0 0 1 .11-.88.6.6 0 0 1 .61-.42M199.37 110.73a2 2 0 0 0-1.65-.78 1.89 1.89 0 0 0-1.3.36l-.1.08V110h-1.85v7.13h2V115l.1.06a2.07 2.07 0 0 0 1.16.31 2.2 2.2 0 0 0 1.54-.57 2.67 2.67 0 0 0 .76-2.06 3.13 3.13 0 0 0-.63-2m-2.17 3.08c-.43 0-.76-.38-.76-1.11s.37-1.13.78-1.13.85.38.85 1.11-.36 1.13-.87 1.13" id="logo-02"/></symbol><symbol id="myPage" viewBox="0 0 200 200"><title>my_page</title><path d="M179 161.74c-12.94-5.6-48.44-17.09-49.83-17.54l-3.89-1.33v-9.52a2.37 2.37 0 0 1 .5-.59c2.58-1.36 14.58-8.67 17.93-27.49a19.65 19.65 0 0 0 9.82-7.74c3.91-5.55 6.94-14.58 4.38-21.3a13.76 13.76 0 0 0-4.91-6.45c2.77-16.5-1.21-39.22-12.91-52A55.22 55.22 0 0 0 100.3 0h-.6a55.21 55.21 0 0 0-39.8 17.79C48.2 30.56 44.22 53.28 47 69.78a13.8 13.8 0 0 0-4.85 6.46C39.58 83 42.61 92 46.52 97.53a19.62 19.62 0 0 0 9.83 7.74c3.33 18.81 15.33 26.12 17.91 27.49.07.06.44.4.49.47v9.64L71 144.16c-1.5.49-37 12-49.94 17.58C4.13 169.05 1.37 186 2.28 193.87A6.91 6.91 0 0 0 9.14 200a7.09 7.09 0 0 0 .79 0 6.93 6.93 0 0 0 6.07-7.7c0-.13-1.31-12.76 10.51-17.87 12.34-5.33 48.34-17 48.82-17.15l8.56-2.92a6.93 6.93 0 0 0 4.67-6.55v-14.58A14.77 14.77 0 0 0 81 120.7a2.87 2.87 0 0 0-.39-.2c-.34-.18-8.48-4.44-10.76-18-.46-2.71-1.31-7.77-5.71-9.59a3.59 3.59 0 0 0-.43-.14 6.78 6.78 0 0 0-2.81-.61.65.65 0 0 1-.14 0c-.38 0-1.4-.56-2.59-2.08-2.52-3.23-3.47-7.72-3.15-8.93v-.08a5.82 5.82 0 0 0 .6-.14 6.6 6.6 0 0 0 1.5-.28A6.92 6.92 0 0 0 61.68 72c-3.89-12.24-1.06-34.5 8.42-44.84a41.28 41.28 0 0 1 29.15-13.3h.21a4.2 4.2 0 0 0 .51-.05 6.36 6.36 0 0 0 .77.05 41.2 41.2 0 0 1 29.16 13.3c9.48 10.34 12.31 32.6 8.42 44.84a6.92 6.92 0 0 0 4.49 8.69 6.52 6.52 0 0 0 1.49.28 6 6 0 0 0 .61.14c.34 1.27-.61 5.76-3.13 9-1.19 1.52-2.21 2.08-2.59 2.08a6.57 6.57 0 0 0-2.86.58 5.08 5.08 0 0 0-.51.17c-4.4 1.82-5.25 6.88-5.71 9.59-2.27 13.55-10.42 17.81-10.66 17.94l-.49.25a14.78 14.78 0 0 0-7.54 12.53v14.58a6.93 6.93 0 0 0 4.67 6.55l8.67 3c.36.12 36.37 11.78 48.71 17.11C184.89 179.37 184.1 191 184 192.3a6.93 6.93 0 0 0 6.09 7.66 7.09 7.09 0 0 0 .79 0 6.91 6.91 0 0 0 6.86-6.13c.89-7.83-1.88-24.78-18.74-32.09z" id="myPage-01"/></symbol><symbol id="onlineStore" viewBox="0 0 200 200"><title>online_store</title><path d="M198.63 37.39a6.83 6.83 0 0 0-5.48-2.75H37.39L32.84 11a6.85 6.85 0 0 0-6.73-5.56H6.85a6.86 6.86 0 0 0 0 13.71h13.6l17.92 93.2c1.41 10.12 9.92 28.9 32.4 28.9h98.94a6.86 6.86 0 1 0 0-13.71H70.77c-15.92 0-18.6-15.47-18.84-17.19 0-.13 0-.27-.07-.4l-7.28-37.9H177l-4.62 15.66-108.12 15.9a6.85 6.85 0 1 0 2 13.55l112.44-16.53a6.86 6.86 0 0 0 5.58-4.84l15.44-52.36a6.84 6.84 0 0 0-1.09-6.04zM42 58.35l-2-10h144l-2.95 10zM55.88 151.89a21.35 21.35 0 1 0 21.35 21.35 21.35 21.35 0 0 0-21.35-21.35zm0 29a7.64 7.64 0 1 1 7.65-7.64 7.65 7.65 0 0 1-7.65 7.63zM157.31 151.89a21.35 21.35 0 1 0 21.35 21.35 21.35 21.35 0 0 0-21.35-21.35zm0 29a7.64 7.64 0 1 1 7.64-7.64 7.65 7.65 0 0 1-7.64 7.63z" id="onlineStore-01"/></symbol><symbol id="search" viewBox="0 0 200 200"><title>search</title><path d="M177.77 77.61h-47.55a58.09 58.09 0 0 1-3.72 13.62h51.27a8.63 8.63 0 0 1 8.62 8.61v64.54h-32.11a5.7 5.7 0 0 0 .23-1.55v-33.05a6 6 0 0 0-6-6h-36.2a6 6 0 0 0-6 6v33.05a6.11 6.11 0 0 0 .23 1.55h-37v-36.77a57.83 57.83 0 0 1-13.62-2.29V178H200V99.84a22.23 22.23 0 0 0-22.23-22.23z" id="search-01"/><path d="M72.32 116.33a47.23 47.23 0 1 0-33.94-14.46L2 138.25a6.81 6.81 0 0 0 9.63 9.63l37.61-37.61a46.87 46.87 0 0 0 23.08 6.06zm0-80.71a33.55 33.55 0 1 1-33.55 33.55 33.59 33.59 0 0 1 33.55-33.55z" id="search-02"/></symbol><symbol id="tel" viewBox="0 0 200 200"><title>tel</title><path class="cls-1" d="M196.62 101.21c-28.53-27-62.85-41.93-96.62-41.93s-68.09 14.89-96.69 42A11.37 11.37 0 0 0 0 109.35a11.07 11.07 0 0 0 3.31 8l20 20c4.28 4.27 12 4.16 16 .17a89.55 89.55 0 0 1 20.62-14.35 12.19 12.19 0 0 0 6.79-10.53V91.73c12.41-3.85 23.06-5.65 33.33-5.65 10.46 0 21.38 1.84 33.33 5.63v20.91a12.21 12.21 0 0 0 6.62 10.59 87.28 87.28 0 0 1 20.72 14.34 11.67 11.67 0 0 0 7.92 3.17 11.36 11.36 0 0 0 8.08-3.31l20-20a11.5 11.5 0 0 0-.07-16.22z" id="tel-01"/></symbol><symbol id="products-baby" viewBox="0 0 200 200"><title>baby</title><path d="M54.76 152.39A20.75 20.75 0 1 1 34 173.14a20.78 20.78 0 0 1 20.75-20.75m0-6.11a26.86 26.86 0 1 0 26.86 26.86 26.85 26.85 0 0 0-26.86-26.86z" id="products-baby-01"/><path d="M54.76 167.94a5.2 5.2 0 1 1-5.19 5.2 5.2 5.2 0 0 1 5.19-5.2m0-6.11a11.31 11.31 0 1 0 11.31 11.31 11.31 11.31 0 0 0-11.31-11.31zM184.28 178.58a7.66 7.66 0 1 1-7.66 7.65 7.66 7.66 0 0 1 7.66-7.65m0-6.11a13.77 13.77 0 1 0 13.77 13.76 13.77 13.77 0 0 0-13.77-13.76zM127.23 125a3.05 3.05 0 0 1-2.26-1L24.8 13.86H5a3.06 3.06 0 1 1 0-6.11h21.15a3 3 0 0 1 2.26 1l101.08 111.18a3.06 3.06 0 0 1-2.26 5.11z" id="products-baby-02"/><path d="M167.71 170a3 3 0 0 1-2.18-.91L137.93 141H72.05c-16.85 0-30-13.4-30-30.51V32a3.07 3.07 0 0 1 .46-1.61A64 64 0 0 1 82.59 1.82a63.88 63.88 0 0 1 48.67 7.59A71.32 71.32 0 0 1 148.48 25a3.06 3.06 0 0 1-.48 4.32L99.15 67.88a3.05 3.05 0 1 1-3.79-4.79l46.37-36.66A64.55 64.55 0 0 0 128 14.61 59.16 59.16 0 0 0 48.12 32.9v77.58c0 13.68 10.51 24.4 23.93 24.4h67.16a3 3 0 0 1 2.18.91l28.5 29a3 3 0 0 1-2.18 5.19z" id="products-baby-03"/></symbol><symbol id="products-cup" viewBox="0 0 100 100"><title>cup</title><path d="M56.7 11.9c1.9 1.5 3.1 2.5 3.1 4.5a3.8 3.8 0 0 1-1.1 2.8 1.5 1.5 0 0 0 .2 2.1 1.5 1.5 0 0 0 1 .4 1.6 1.6 0 0 0 1.1-.5 7.2 7.2 0 0 0 1.8-4.8c0-3.6-2.4-5.4-4.3-6.9s-3.2-2.6-3.2-4.6a4 4 0 0 1 .9-2.5 1.5 1.5 0 0 0-.3-2.1 1.5 1.5 0 0 0-2.1.3 6.8 6.8 0 0 0-1.5 4.3c0 3.6 2.4 5.5 4.4 7zM45.9 15.7c2 1.5 3.2 2.6 3.2 4.6a4.3 4.3 0 0 1-1.1 2.8 1.5 1.5 0 0 0 .1 2.1 1.8 1.8 0 0 0 1 .4 1.6 1.6 0 0 0 1.1-.5 6.8 6.8 0 0 0 1.9-4.8c0-3.6-2.4-5.5-4.4-6.9s-3.2-2.6-3.2-4.6a3.8 3.8 0 0 1 .9-2.5 1.6 1.6 0 0 0-.2-2.1 1.6 1.6 0 0 0-2.2.3 6.8 6.8 0 0 0-1.5 4.3c0 3.6 2.5 5.5 4.4 6.9zM88.3 79.8l-6.2 5.9a6.9 6.9 0 0 1-4.1 1.7H22a6.9 6.9 0 0 1-4.1-1.7l-6.2-5.9a1.5 1.5 0 1 0-2.1 2.1l6.2 6a10.1 10.1 0 0 0 6.2 2.5h56a10.1 10.1 0 0 0 6.2-2.5l6.2-6a1.5 1.5 0 0 0-2.1-2.1z" id="products-cup-01"/><path d="M89.9 30.2H14.8v16.4C14.8 65.6 30.6 81 50 81s35.2-15.4 35.2-34.4V33.2h4.7a7.1 7.1 0 0 1 0 14.1 1.5 1.5 0 0 0 0 3 10.1 10.1 0 0 0 0-20.1zm-7.7 16.4C82.2 63.9 67.8 78 50 78S17.8 63.9 17.8 46.6V33.2h64.4z" id="products-cup-02"/></symbol><symbol id="products-cycle" viewBox="0 0 200 200"><title>cycle</title><path d="M99.55 130.42H33.86a3 3 0 0 1-2.61-4.54L64.09 69a3 3 0 0 1 2.62-1.5 3 3 0 0 1 2.62 1.5l32.84 56.89a3 3 0 0 1-2.62 4.54zm-60.45-6h55.22L66.71 76.55z" id="products-cycle-01"/><path d="M99.6 130.42a3 3 0 0 1-2.6-1.51L64.14 72a3 3 0 0 1 2.61-4.53h65.69a3 3 0 0 1 2.62 4.53l-32.85 56.89a3 3 0 0 1-2.61 1.53zM72 73.53l27.6 47.82 27.61-47.82z" id="products-cycle-02"/><path d="M165.94 130.42a3 3 0 0 1-2.62-1.51l-41.71-72.25a3 3 0 1 1 5.23-3l41.71 72.24a3 3 0 0 1-1.11 4.13 2.92 2.92 0 0 1-1.5.39zM66.89 73.75a3 3 0 0 1-2.62-1.51L48 44.05a3 3 0 1 1 5.23-3L69.5 69.22a3 3 0 0 1-2.61 4.53zM34 161.51c-1.05 0-2.1 0-3.16-.14a34 34 0 0 1 6.26-67.64 3 3 0 0 1-.56 6 27.92 27.92 0 1 0 23.75 37.13 3 3 0 0 1 5.7 2A33.92 33.92 0 0 1 34 161.51z" id="products-cycle-03"/><path d="M166.09 161.45c-.68 0-1.36 0-2.05-.06A34 34 0 0 1 140.62 105a3 3 0 0 1 4.52 4 27.92 27.92 0 1 0 22.54-9.35 28.14 28.14 0 0 0-7.61.59 3 3 0 1 1-1.28-5.9 32.88 32.88 0 0 1 9.24-.72 34 34 0 0 1-1.94 67.86zM64.14 44.53H37.43a3 3 0 1 1 0-6h26.71a3 3 0 1 1 0 6zM145.39 58h-21.28a3 3 0 0 1 0-6.05h15.24v-3.7a3 3 0 1 1 6 0z" id="products-cycle-04"/></symbol><symbol id="products-gift" viewBox="0 0 200 200"><title>gift</title><path d="M194 56v88H6V56h188m6-6H0v100h200V50z" id="products-gift-01"/><path d="M17.67 100.06V100a10.78 10.78 0 0 1 11-10.86A11.53 11.53 0 0 1 36.93 92L34 95.53a7.73 7.73 0 0 0-5.49-2.13 6.31 6.31 0 0 0-6 6.54v.06c0 3.84 2.64 6.66 6.36 6.66a7.37 7.37 0 0 0 4.35-1.26v-3h-4.66v-4h9.12v9.12a13.63 13.63 0 0 1-9 3.33c-6.51.01-11.01-4.58-11.01-10.79zM41.73 89.5h4.62v21h-4.62zM51 89.5h16v4.2H55.62v4.47h10v4.2h-10v8.13H51zM76.17 93.76h-6.39V89.5h17.4v4.26h-6.39v16.74h-4.62zM95.79 100.06V100a10.67 10.67 0 0 1 10.95-10.86 10.83 10.83 0 0 1 8.26 3.24l-2.94 3.39a7.75 7.75 0 0 0-5.37-2.37c-3.54 0-6.09 2.94-6.09 6.54v.06c0 3.6 2.49 6.6 6.09 6.6 2.4 0 3.87-1 5.52-2.46l2.94 3a10.73 10.73 0 0 1-8.61 3.75 10.6 10.6 0 0 1-10.75-10.83zM125.46 89.35h4.26l9 21.15h-4.83l-1.89-4.71h-8.88l-1.92 4.71h-4.71zm4.86 12.36l-2.79-6.81-2.79 6.81zM141.36 89.5H151a8.37 8.37 0 0 1 6.12 2.13 6.59 6.59 0 0 1 1.8 4.8v.06a6.52 6.52 0 0 1-4.5 6.51l5.13 7.5h-5.4l-4.5-6.72H146v6.72h-4.62zm9.3 10.2c2.25 0 3.54-1.2 3.54-3v-.06c0-2-1.38-3-3.63-3H146v6zM163.65 89.5h8.19c6.6 0 11.16 4.5 11.16 10.44v.06c0 5.91-4.56 10.5-11.16 10.5h-8.19zm8.19 16.83a6 6 0 0 0 6.33-6.27V100a6 6 0 0 0-6.33-6.33h-3.57v12.66z" id="products-gift-02"/></symbol><symbol id="products-golf" viewBox="0 0 200 200"><title>golf</title><path d="M67.49 199.86a2.94 2.94 0 0 1-1.35-.32 3 3 0 0 1-1.37-4.07l86.7-174.54a3 3 0 1 1 5.44 2.71l-86.7 174.53a3 3 0 0 1-2.72 1.69z" id="products-golf-01"/><path d="M136.9 63.16a6.07 6.07 0 0 1-5.44-8.78l25.34-51a6.08 6.08 0 1 1 10.88 5.41l-25.34 51a6.06 6.06 0 0 1-5.44 3.37zM67.2 200H43.34a6.77 6.77 0 0 1-6.43-5.07l-5.07-21A5.16 5.16 0 0 1 37 167.4h43.32a3 3 0 1 1 0 6.08H38l4.82 20a.82.82 0 0 0 .53.41H67.2a3 3 0 0 1 0 6.08zM134.51 184.79A13.5 13.5 0 1 1 148 171.3a13.5 13.5 0 0 1-13.49 13.49zm0-20.91a7.42 7.42 0 1 0 7.42 7.42 7.43 7.43 0 0 0-7.42-7.42z" id="products-golf-02"/></symbol><symbol id="products-guitar" viewBox="0 0 200 200"><title>guitar</title><path d="M61.05 200c-17.53 0-28.78-7.66-41-19.93C7.27 167.34-.5 155.7.1 137c.58-18.1 17.57-30.48 28.84-34.38a59.79 59.79 0 0 1 11.82-2.49c4.83-.65 9-1.22 12-3.74 4-3.3 5.06-6.25 7.18-12.12a30.25 30.25 0 0 1 25.9-19.82c13-1 21.73 5.08 33.21 16.57s17.53 20.17 16.57 33.21A30.14 30.14 0 0 1 116.05 140c-6.13 2.22-9.08 3.29-12.38 7.28-2.52 3-3.09 7.21-3.74 12a59.49 59.49 0 0 1-2.49 11.82c-3.9 11.3-16.28 28.28-34.39 28.9zm-36.67-24.31c11.86 11.86 22 18.63 38.48 18.08 15-.48 25.38-15 28.73-24.67a54.24 54.24 0 0 0 2.2-10.63c.75-5.53 1.46-10.75 5.11-15.16 4.38-5.28 8.74-6.87 14.78-9.05a24.29 24.29 0 0 0 15.76-20.48c.71-9.6-2.88-16.5-14.77-28.38s-18.8-15.47-28.38-14.77a24.19 24.19 0 0 0-20.38 15.49c-2.29 6.31-3.87 10.67-9.16 15-4.4 3.65-9.62 4.36-15.15 5.11a54.24 54.24 0 0 0-10.6 2.25c-9.65 3.35-24.19 13.75-24.68 28.73-.53 16.53 6.23 26.62 18.09 38.48z" id="products-guitar-01"/><path d="M34.541 141.39l4.385-4.384L63.01 161.09l-4.385 4.384zM86.2 130a16.22 16.22 0 1 1 11.47-4.74A16.2 16.2 0 0 1 86.2 130zm0-26.24a10 10 0 1 0 7.09 2.94 10 10 0 0 0-7.09-2.91zM117.14 70.52a2.07 2.07 0 0 1-1.46-3.52l30.83-30.83a2.06 2.06 0 1 1 2.92 2.92L118.6 69.91a2 2 0 0 1-1.46.61zM131.55 84.92a2 2 0 0 1-1.46-.61 2.06 2.06 0 0 1 0-2.92l30.83-30.83a2.06 2.06 0 1 1 2.92 2.92L133 84.31a2 2 0 0 1-1.45.61zM124.34 77.72a2.07 2.07 0 0 1-1.46-3.53l30.83-30.83a2.06 2.06 0 1 1 2.92 2.92L125.8 77.11a2 2 0 0 1-1.46.61zM174 50.8a3.18 3.18 0 0 1-1-.17 3.1 3.1 0 0 1-1.93-3.93c4.51-13.2 15.41-19.94 20.79-22.56a36.71 36.71 0 0 0-6.61-9.47 36.45 36.45 0 0 0-9.46-6.6c-2.62 5.37-9.36 16.28-22.55 20.79a3.1 3.1 0 0 1-2-5.87c14.55-5 20-19.89 20-20L172.3 0l2.94 1.06a44 44 0 0 1 14.39 9.23 44.07 44.07 0 0 1 9.23 14.39l1.07 3-3 1c-.15 0-15.08 5.48-20 20A3.12 3.12 0 0 1 174 50.8z" id="products-guitar-02"/></symbol><symbol id="products-hobby" viewBox="0 0 200 200"><title>hobby</title><path d="M164.71 195.93a32.29 32.29 0 0 1-9.21-1.35c-22.6-6.79-24.8-21.6-27.83-42.1a215.82 215.82 0 0 0-6-29.75c-7.07-24.49-16-38.84-25.48-54-6-9.61-12.18-19.55-18.32-32.6C68.35 15.81 58 6.27 45.37 6.05 33 5.94 28.47 12.79 25.84 16.94l-.75 1.16C21.9 22.88 13 25.15 12 25.4c-.24.05-5 1.23-5.55 5.27a7.48 7.48 0 0 0 1.62 5.77 5.75 5.75 0 0 0 4.53 1.9h12.08a3 3 0 0 1 1.76.57c6.25 4.46 13.82 3.67 13.9 3.66 5.45-.56 9.12-5 9.15-8.84a3 3 0 0 1 3-3 3 3 0 0 1 3 3c-.06 7.36-6.58 14-14.53 14.8a28.14 28.14 0 0 1-17.25-4.18H12.6a11.65 11.65 0 0 1-9.08-4 13.43 13.43 0 0 1-3-10.56c1.12-8.23 9.79-10.26 10.16-10.34 3.07-.75 8.08-2.74 9.43-4.76l.67-1C23.6 9.17 29.48-.32 45.47 0c20 .34 31.2 19.28 37.89 33.5 6 12.74 12.09 22.52 18 32 9.7 15.56 18.86 30.26 26.16 55.55a221.43 221.43 0 0 1 6.15 30.54c3 20.32 4.66 31.52 23.59 37.19a26.75 26.75 0 0 0 23.65-4.33 31.5 31.5 0 0 0 12.71-24.86c.49-32.56-18-54.25-37.67-77.22-4.32-5.06-8.79-10.3-13-15.58-6.57-8.31-9.37-16-9.37-25.53a39.52 39.52 0 0 1 39.49-39.47 3 3 0 0 1 0 6.05 33.46 33.46 0 0 0-33.42 33.42c0 8.22 2.34 14.53 8.06 21.78 4.1 5.2 8.54 10.38 12.82 15.4 19.49 22.81 39.64 46.4 39.12 81.23a37.57 37.57 0 0 1-15.19 29.66 33.36 33.36 0 0 1-19.75 6.6z" id="products-hobby-01"/><path d="M7.45 200A3 3 0 0 1 6 194.35l35.19-19.83a39.41 39.41 0 0 1-12.34-28.9A38.63 38.63 0 0 1 67.39 107a3 3 0 1 1 0 6 32.58 32.58 0 0 0-32.54 32.54 33 33 0 0 0 13.4 26.91 3 3 0 0 1-.28 5.09l-39 22a3.06 3.06 0 0 1-1.52.46zM26.16 98.53a3 3 0 0 1-1-5.88l12.74-4.41c1.66-3.35 6.87-13.73 12.84-24.55C57.76 51 67.69 51.36 72 53.33a3 3 0 0 1-2.51 5.5C68.68 58.5 61.9 56 56 66.62c-7.15 13-13.2 25.27-13.26 25.4a3 3 0 0 1-1.72 1.52l-13.9 4.82a2.91 2.91 0 0 1-.96.17z" id="products-hobby-02"/></symbol><symbol id="products-kids" viewBox="0 0 200 200"><path d="M48.445 70.832h23.944a4.009 4.009 0 0 0 3.991-4V51.221h9.82a3.002 3.002 0 0 0 0-6.005h-9.82v-8.084a4.009 4.009 0 0 0-3.991-4H48.445a4.009 4.009 0 0 0-3.991 4v29.7a4.009 4.009 0 0 0 3.991 4zm21.949-6.006H50.44V51.221h19.954v13.605zm0-25.693v6.082H50.44v-6.082h19.954zm16.893 42.444H33.546a6.192 6.192 0 0 0-6.187 7.5l14.232 75.355a2.993 2.993 0 1 0 5.881-1.119L33.24 87.953a.457.457 0 0 1 .012-.3.451.451 0 0 1 .294-.067h53.741a.25.25 0 0 1 .308.372l-14.232 75.351a3 3 0 0 0 2.383 3.509 2.913 2.913 0 0 0 .561.054 3 3 0 0 0 2.937-2.444l14.232-75.354a6.192 6.192 0 0 0-6.189-7.497zm40.327-10.745h23.944a4.009 4.009 0 0 0 3.99-4v-7.069A11.946 11.946 0 0 0 157.307 61a12.135 12.135 0 0 0 6.087 1.563 19.191 19.191 0 0 0 7.367-1.654 3.002 3.002 0 0 0-2.307-5.542c-3.39 1.42-6.142 1.561-8.178.414-3.523-1.98-4.4-7.263-4.421-7.391a3.016 3.016 0 0 0-.307-.92V37.132a4.009 4.009 0 0 0-3.99-4h-23.944a4.009 4.009 0 0 0-3.991 4v29.7a4.009 4.009 0 0 0 3.991 4zm2-31.7h19.953v25.694h-19.958V39.133zm43.035 120.243L158.411 84.02a2.993 2.993 0 1 0-5.88 1.118l14.232 75.357a.448.448 0 0 1-.012.3.441.441 0 0 1-.294.068h-53.741a.25.25 0 0 1-.308-.372l14.232-75.353a2.993 2.993 0 1 0-5.881-1.118l-14.232 75.355a6.192 6.192 0 0 0 6.189 7.5h53.741a6.193 6.193 0 0 0 6.187-7.499z" id="products-kids-01"/></symbol><symbol id="products-lady" viewBox="0 0 200 200"><title>lady</title><path d="M110.11 6.06V32H89.9V6.06h20.21m2-6.06H87.87a4.05 4.05 0 0 0-4 4v30a4.06 4.06 0 0 0 4 4h24.26a4.06 4.06 0 0 0 4-4V4a4.05 4.05 0 0 0-4-4zM43.73 200a3.07 3.07 0 0 1-.79-.11 3 3 0 0 1-2.14-3.71L77.56 59.37c.9-3.33 3-3.84 3.92-3.9s3.08.13 4.45 3.29c0 .11 4.89 10.92 14.07 10.92s14-10.81 14.08-10.92c1.36-3.16 3.56-3.36 4.44-3.29s3 .57 3.92 3.91l36.76 136.8a3 3 0 0 1-5.86 1.57L117.62 64.82c-2.8 4.32-8.56 10.92-17.62 10.92s-14.82-6.6-17.62-10.92L46.66 197.75a3 3 0 0 1-2.93 2.25z" id="products-lady-01"/></symbol><symbol id="products-luxury" viewBox="0 0 100 100"><title>luxury</title><path d="M4.2 13.8c7.4 1.5 8.2 2.3 9.6 9.7a1.5 1.5 0 0 0 3 0c1.5-7.4 2.3-8.2 9.6-9.7a1.5 1.5 0 0 0 1.2-1.5 1.4 1.4 0 0 0-1.2-1.4c-7.3-1.5-8.1-2.3-9.6-9.7a1.5 1.5 0 0 0-3 0c-1.4 7.4-2.2 8.2-9.6 9.7A1.4 1.4 0 0 0 3 12.3a1.5 1.5 0 0 0 1.2 1.5zm11.1-6.6a8.3 8.3 0 0 0 5.1 5.1 8.6 8.6 0 0 0-5.1 5.1 8.3 8.3 0 0 0-5.1-5.1 8.1 8.1 0 0 0 5.1-5.1zM66.8 67.6c-7.3-1.5-8.1-2.3-9.6-9.7a1.5 1.5 0 0 0-3 0c-1.4 7.4-2.2 8.2-9.6 9.7a1.4 1.4 0 0 0-1.2 1.5 1.4 1.4 0 0 0 1.2 1.4c7.4 1.5 8.2 2.3 9.6 9.7a1.5 1.5 0 0 0 3 0c1.5-7.4 2.3-8.2 9.6-9.7a1.4 1.4 0 0 0 1.2-1.4 1.4 1.4 0 0 0-1.2-1.5zm-11.1 6.6a8.1 8.1 0 0 0-5.1-5.1 8.5 8.5 0 0 0 5.1-5.2 8.7 8.7 0 0 0 5.1 5.2 8.3 8.3 0 0 0-5.1 5.1zM75.4 19c4.1.8 4.3 1.1 5.2 5.2a1.4 1.4 0 0 0 1.4 1.2 1.4 1.4 0 0 0 1.5-1.2c.8-4.1 1.1-4.4 5.2-5.2a1.4 1.4 0 0 0 1.2-1.5 1.4 1.4 0 0 0-1.2-1.4c-4.1-.9-4.4-1.1-5.2-5.2A1.4 1.4 0 0 0 82 9.7a1.4 1.4 0 0 0-1.4 1.2c-.9 4.1-1.1 4.3-5.2 5.2a1.4 1.4 0 0 0-1.2 1.4 1.4 1.4 0 0 0 1.2 1.5zm6.6-3.1a5.2 5.2 0 0 0 1.7 1.6 6.9 6.9 0 0 0-1.7 1.7 5.2 5.2 0 0 0-1.6-1.7 4.1 4.1 0 0 0 1.6-1.6z" id="products-luxury-01"/><path d="M96.9 30.1h-29L62.9 8A4.2 4.2 0 0 0 59 4.9H41A4.2 4.2 0 0 0 37.1 8l-5 22.1h-29A2.1 2.1 0 0 0 1 33l15.3 54.4a4.1 4.1 0 0 0 3.8 2.9h59.8a4.1 4.1 0 0 0 3.8-2.9L99 33a2.1 2.1 0 0 0-2.1-2.9zM40 8.7a1.2 1.2 0 0 1 1-.8h18a1.2 1.2 0 0 1 1 .8l4.8 21.4H35.1zm40.8 77.9a1.3 1.3 0 0 1-.9.7H20.1a1.3 1.3 0 0 1-.9-.7L4.1 33.1h27.3L20.6 81a1.5 1.5 0 0 0 1.1 1.8h.3a1.5 1.5 0 0 0 1.5-1.2l11-48.6h14.1v8a1.5 1.5 0 0 0 1.5 1.5 1.5 1.5 0 0 0 1.5-1.5v-7.9h13.9l10.9 48.5a1.5 1.5 0 0 0 1.8 1.1 1.6 1.6 0 0 0 1.2-1.8L68.6 33.1h27.3z" id="products-luxury-02"/></symbol><symbol id="products-man" viewBox="0 0 200 200"><title>man</title><path d="M110.11 6.06V32H89.89V6.06h20.22m2-6.06H87.87a4.05 4.05 0 0 0-4 4v30a4.06 4.06 0 0 0 4 4h24.26a4.06 4.06 0 0 0 4-4V4a4.05 4.05 0 0 0-4-4zM118.46 200a3.13 3.13 0 0 1-.79-.11 3 3 0 0 1-2.14-3.71L152.3 59.37l-30-.08a3.67 3.67 0 0 0-2.84 1.87l-3.67 8.62a9.64 9.64 0 0 1-8.41 5.57H92.61a9.64 9.64 0 0 1-8.41-5.57l-3.67-8.62a3.67 3.67 0 0 0-2.84-1.87H47.77l36.7 136.89a3 3 0 0 1-5.86 1.57L41.85 61a6 6 0 0 1 5.92-7.73h29.92a9.65 9.65 0 0 1 8.42 5.57l3.67 8.62a3.64 3.64 0 0 0 2.83 1.87h14.78a3.66 3.66 0 0 0 2.83-1.87l3.67-8.62a9.65 9.65 0 0 1 8.42-5.57h29.92a6 6 0 0 1 5.92 7.73l-36.76 136.8a3 3 0 0 1-2.93 2.2z" id="products-man-01"/></symbol><symbol id="products-necklace" viewBox="0 0 200 200"><title>necklace</title><circle cx="8.06" cy="10.5" r="8.06"/><circle cx="24.17" cy="38.28" r="8.06"/><circle cx="40.28" cy="66.05" r="8.06"/><circle cx="56.39" cy="93.83" r="8.06"/><circle cx="72.5" cy="121.61" r="8.06"/><circle cx="191.94" cy="10.5" r="8.06"/><circle cx="175.83" cy="38.28" r="8.06"/><circle cx="159.72" cy="66.05" r="8.06"/><circle cx="143.61" cy="93.83" r="8.06"/><circle cx="127.5" cy="121.61" r="8.06"/><path d="M100 197.56a9.05 9.05 0 0 1-7.63-4.16L80 174.19a9.11 9.11 0 0 1 0-9.81l12.35-19.2a9.08 9.08 0 0 1 15.26 0l12.39 19.2a9.11 9.11 0 0 1 0 9.81l-12.37 19.21a9.05 9.05 0 0 1-7.63 4.16zm0-49.38a1.86 1.86 0 0 0-1.6.88L86 168.26a1.92 1.92 0 0 0 0 2.06l12.35 19.2a1.91 1.91 0 0 0 3.22 0l12.43-19.2a1.92 1.92 0 0 0 0-2.06l-12.35-19.2a1.88 1.88 0 0 0-1.65-.88zm17 24.08z" id="products-necklace-01"/></symbol><symbol id="products-outdoor" viewBox="0 0 200 200"><title>outdoor</title><path d="M180.52 180.8a3 3 0 0 1-2.61-1.49L86.23 23.77a3 3 0 0 1 5.22-3.08l91.68 155.54a3 3 0 0 1-2.61 4.57z" id="products-outdoor-01"/><path d="M19.48 180.8a3 3 0 0 1-2.6-4.59L109.8 20.68a3 3 0 1 1 5.2 3.11L22.08 179.32a3 3 0 0 1-2.6 1.48z" id="products-outdoor-02"/><path d="M197 180.8H3a3 3 0 0 1 0-6.07h194a3 3 0 0 1 0 6.07z" id="products-outdoor-03"/><path d="M127.6 179.82a3 3 0 0 1-2.6-1.52l-22-38.18a3.37 3.37 0 0 0-5.84 0L75 178.3a3 3 0 0 1-5.25-3l22-38.19a9.44 9.44 0 0 1 16.34 0l22 38.19a3 3 0 0 1-1.11 4.14 3 3 0 0 1-1.38.38z" id="products-outdoor-04"/></symbol><symbol id="products-pc" viewBox="0 0 200 200"><title>pc</title><path d="M194 30v104.8H6V30h188m2-6H4a4 4 0 0 0-4 4v108.8a4 4 0 0 0 4 4h192a4 4 0 0 0 4-4V28a4 4 0 0 0-4-4zM144 162v8H56v-8h88m1-6H55a5 5 0 0 0-5 5v10a5 5 0 0 0 5 5h90a5 5 0 0 0 5-5v-10a5 5 0 0 0-5-5z" id="products-pc-01"/><path d="M180 44.41v76H20v-76h160m2-6H18a4 4 0 0 0-4 4v80a4 4 0 0 0 4 4h164a4 4 0 0 0 4-4v-80a4 4 0 0 0-4-4zM86.42 138.12h6v18.78h-6zM107.64 138.12h6v18.78h-6z" id="products-pc-02"/></symbol><symbol id="products-phone" viewBox="0 0 200 200"><title>phone</title><path d="M144 6a10 10 0 0 1 10 10v168a10 10 0 0 1-10 10H56a10 10 0 0 1-10-10V16A10 10 0 0 1 56 6h88m0-6H56a16 16 0 0 0-16 16v168a16 16 0 0 0 16 16h88a16 16 0 0 0 16-16V16a16 16 0 0 0-16-16z" id="products-phone-01"/><path d="M144 6a10 10 0 0 1 10 10v168a10 10 0 0 1-10 10H56a10 10 0 0 1-10-10V16A10 10 0 0 1 56 6h88m0-6H56a16 16 0 0 0-16 16v168a16 16 0 0 0 16 16h88a16 16 0 0 0 16-16V16a16 16 0 0 0-16-16z" id="products-phone-02"/><path d="M119.73 20.59H80.27a2.32 2.32 0 0 1-2.14-1.41L71.37 3.32h57.26l-6.76 15.86a2.32 2.32 0 0 1-2.14 1.41zM68.83 165.12v4.12a4.12 4.12 0 1 1-4.12-4.12h4.12m3.88 4.12a8 8 0 0 0-8-8 8 8 0 1 0 0 16 8 8 0 0 0 8-8zM94.36 165.12v4.12a4.12 4.12 0 1 1-4.12-4.12h4.12m3.88 4.12a8 8 0 1 0-8 8 8 8 0 0 0 8-8zM116.89 165.12v4.12a4.13 4.13 0 1 1-4.13-4.12h4.13m3.87 4.12a8 8 0 1 0-8 8 8 8 0 0 0 8-8zM139.41 165.12v4.12a4.12 4.12 0 1 1-4.12-4.12h4.12m3.88 4.12a8 8 0 1 0-8 8 8 8 0 0 0 8-8z" id="products-phone-03"/></symbol><symbol id="products-sofa" viewBox="0 0 200 200"><title>sofa</title><path d="M31.91 177.86a3 3 0 0 1-2.69-4.33l17.47-35.46a3 3 0 0 1 5.38 2.65l-17.46 35.46a3 3 0 0 1-2.7 1.68zM168.28 177.86a3 3 0 0 1-2.7-1.68l-17.46-35.46a3 3 0 0 1 5.38-2.65l17.5 35.46a3 3 0 0 1-2.69 4.33z" id="products-sofa-01"/><path d="M194 83.3v52.64H6V83.3h25.38V104a10 10 0 0 0 10 10h117.24a10 10 0 0 0 10-10V83.3H194m2-6h-29.38a4 4 0 0 0-4 4V104a4 4 0 0 1-4 4H41.38a4 4 0 0 1-4-4V81.3a4 4 0 0 0-4-4H4a4 4 0 0 0-4 4v56.64a4 4 0 0 0 4 4h192a4 4 0 0 0 4-4V81.3a4 4 0 0 0-4-4z" id="products-sofa-02"/><path d="M184.16 80.27h-6V29.14a1 1 0 0 0-1-1H22.84a1 1 0 0 0-1 1v51.13h-6V29.14a7 7 0 0 1 7-7h154.32a7 7 0 0 1 7 7z" id="products-sofa-03"/><path d="M100 112a3 3 0 0 1-3-3V25.69a3 3 0 1 1 6 0V109a3 3 0 0 1-3 3z" id="products-sofa-04"/></symbol><symbol id="products-sports" viewBox="0 0 200 200"><title>sports</title><path d="M120.76 6.06V32h-20.21V6.06h20.21m2-6.06H98.53a4.05 4.05 0 0 0-4 4v30a4.05 4.05 0 0 0 4 4h24.26a4.05 4.05 0 0 0 4-4V4a4.05 4.05 0 0 0-4-4zM135.1 167.14a3.13 3.13 0 0 1-.79-.11 3 3 0 0 1-2.14-3.71l11.69-43.5-27.26-.09a6 6 0 0 1-5.91-7.72L126 55.47a3 3 0 1 1 5.85 1.58l-15.3 56.54 27.26.08a6 6 0 0 1 5.92 7.72L138 164.89a3 3 0 0 1-2.9 2.25zM52.18 200a2.71 2.71 0 0 1-.8-.11 3 3 0 0 1-2.13-3.72L87.47 55.46a3 3 0 1 1 5.85 1.59L55.1 197.76a3 3 0 0 1-2.92 2.24z" id="products-sports-01"/><path d="M35 91a3 3 0 0 1-.78-.1 3 3 0 0 1-2.15-3.71l7.43-27.81a8.61 8.61 0 0 1 8-6.15h81.4a3 3 0 1 1 0 6.06H47.51a2.57 2.57 0 0 0-2.15 1.65L38 88.71A3 3 0 0 1 35 91z" id="products-sports-02"/><path d="M154.33 90.57a3 3 0 0 1-2.33-1.13l-25.44-31.27a3 3 0 0 1 4.7-3.82L152.93 81 162 46.72a3 3 0 0 1 5.86 1.56l-10.63 40A3 3 0 0 1 155 90.5a3.48 3.48 0 0 1-.67.07z" id="products-sports-03"/></symbol></svg>