<svg id="レイヤー_1" data-name="レイヤー 1" xmlns="http://www.w3.org/2000/svg" width="200" height="200" viewBox="0 0 200 200">
<title>baby</title>
<path d="M54.76,152.39A20.75,20.75,0,1,1,34,173.14a20.78,20.78,0,0,1,20.75-20.75m0-6.11a26.86,26.86,0,1,0,26.86,26.86,26.85,26.85,0,0,0-26.86-26.86Z"/>
<path d="M54.76,167.94a5.2,5.2,0,1,1-5.19,5.2,5.2,5.2,0,0,1,5.19-5.2m0-6.11a11.31,11.31,0,1,0,11.31,11.31,11.31,11.31,0,0,0-11.31-11.31Z"/>
<path d="M184.28,178.58a7.66,7.66,0,1,1-7.66,7.65,7.66,7.66,0,0,1,7.66-7.65m0-6.11a13.77,13.77,0,1,0,13.77,13.76,13.77,13.77,0,0,0-13.77-13.76Z"/>
<path d="M127.23,125a3.05,3.05,0,0,1-2.26-1L24.8,13.86H5A3.06,3.06,0,1,1,5,7.75H26.15a3,3,0,0,1,2.26,1L129.49,119.93a3.06,3.06,0,0,1-2.26,5.11Z"/>
<path d="M167.71,170a3,3,0,0,1-2.18-.91L137.93,141H72.05c-16.85,0-30-13.4-30-30.51V32a3.07,3.07,0,0,1,.46-1.61A64,64,0,0,1,82.59,1.82a63.88,63.88,0,0,1,48.67,7.59A71.32,71.32,0,0,1,148.48,25a3.06,3.06,0,0,1-.48,4.32L99.15,67.88a3.05,3.05,0,1,1-3.79-4.79l46.37-36.66A64.55,64.55,0,0,0,128,14.61,59.16,59.16,0,0,0,48.12,32.9v77.58c0,13.68,10.51,24.4,23.93,24.4h67.16a3,3,0,0,1,2.18.91l28.5,29a3,3,0,0,1-2.18,5.19Z"/>
</svg>