<svg version="1.1" xmlns="http://www.w3.org/2000/svg" viewBox="0 0 100 100">
  <title>cup</title>
  <path d="M56.7,11.9c1.9,1.5,3.1,2.5,3.1,4.5a3.8,3.8,0,0,1-1.1,2.8,1.5,1.5,0,0,0,.2,2.1,1.5,1.5,0,0,0,1,.4,1.6,1.6,0,0,0,1.1-.5,7.2,7.2,0,0,0,1.8-4.8c0-3.6-2.4-5.4-4.3-6.9s-3.2-2.6-3.2-4.6a4,4,0,0,1,.9-2.5A1.5,1.5,0,0,0,55.9.3a1.5,1.5,0,0,0-2.1.3,6.8,6.8,0,0,0-1.5,4.3C52.3,8.5,54.7,10.4,56.7,11.9Z"/><path d="M45.9,15.7c2,1.5,3.2,2.6,3.2,4.6A4.3,4.3,0,0,1,48,23.1a1.5,1.5,0,0,0,.1,2.1,1.8,1.8,0,0,0,1,.4,1.6,1.6,0,0,0,1.1-.5,6.8,6.8,0,0,0,1.9-4.8c0-3.6-2.4-5.5-4.4-6.9s-3.2-2.6-3.2-4.6a3.8,3.8,0,0,1,.9-2.5,1.6,1.6,0,0,0-.2-2.1,1.6,1.6,0,0,0-2.2.3,6.8,6.8,0,0,0-1.5,4.3C41.5,12.4,44,14.3,45.9,15.7Z"/><path d="M88.3,79.8l-6.2,5.9A6.9,6.9,0,0,1,78,87.4H22a6.9,6.9,0,0,1-4.1-1.7l-6.2-5.9a1.5,1.5,0,1,0-2.1,2.1l6.2,6A10.1,10.1,0,0,0,22,90.4H78a10.1,10.1,0,0,0,6.2-2.5l6.2-6a1.5,1.5,0,0,0-2.1-2.1Z"/><path d="M89.9,30.2H14.8V46.6C14.8,65.6,30.6,81,50,81S85.2,65.6,85.2,46.6V33.2h4.7a7.1,7.1,0,0,1,0,14.1,1.5,1.5,0,0,0,0,3,10.1,10.1,0,0,0,0-20.1ZM82.2,46.6C82.2,63.9,67.8,78,50,78S17.8,63.9,17.8,46.6V33.2H82.2Z"/></svg>