<svg id="レイヤー_1" data-name="レイヤー 1" xmlns="http://www.w3.org/2000/svg" width="200" height="200" viewBox="0 0 200 200">
  <title>cycle</title>
  <path d="M99.55,130.42H33.86a3,3,0,0,1-2.61-4.54L64.09,69a3,3,0,0,1,2.62-1.5h0A3,3,0,0,1,69.33,69l32.84,56.89a3,3,0,0,1-2.62,4.54Zm-60.45-6H94.32L66.71,76.55Z"/>
  <path d="M99.6,130.42A3,3,0,0,1,97,128.91L64.14,72a3,3,0,0,1,2.61-4.53h65.69A3,3,0,0,1,135.06,72l-32.85,56.89A3,3,0,0,1,99.6,130.42ZM72,73.53,99.6,121.35l27.61-47.82Z"/>
  <path d="M165.94,130.42a3,3,0,0,1-2.62-1.51L121.61,56.66a3,3,0,1,1,5.23-3l41.71,72.24a3,3,0,0,1-1.11,4.13A2.92,2.92,0,0,1,165.94,130.42Z"/>
  <path d="M66.89,73.75a3,3,0,0,1-2.62-1.51L48,44.05a3,3,0,1,1,5.23-3L69.5,69.22a3,3,0,0,1-2.61,4.53Z"/>
  <path d="M34,161.51c-1.05,0-2.1,0-3.16-.14a34,34,0,0,1,6.26-67.64,3,3,0,0,1-.56,6,27.92,27.92,0,1,0,23.75,37.13,3,3,0,0,1,5.7,2A33.92,33.92,0,0,1,34,161.51Z"/>
  <path d="M166.09,161.45c-.68,0-1.36,0-2.05-.06A34,34,0,0,1,140.62,105a3,3,0,0,1,4.52,4,27.92,27.92,0,1,0,22.54-9.35,28.14,28.14,0,0,0-7.61.59,3,3,0,1,1-1.28-5.9,32.88,32.88,0,0,1,9.24-.72,34,34,0,0,1-1.94,67.86Z"/>
  <path d="M64.14,44.53H37.43a3,3,0,1,1,0-6H64.14a3,3,0,1,1,0,6Z"/>
  <path d="M145.39,58H124.11a3,3,0,0,1,0-6.05h15.24V48.25a3,3,0,1,1,6,0Z"/>
</svg>