<svg id="レイヤー_1" data-name="レイヤー 1" xmlns="http://www.w3.org/2000/svg" width="200" height="200" viewBox="0 0 200 200">
  <title>golf</title>
  <path d="M67.49,199.86a2.94,2.94,0,0,1-1.35-.32,3,3,0,0,1-1.37-4.07l86.7-174.54a3,3,0,1,1,5.44,2.71L70.21,198.17A3,3,0,0,1,67.49,199.86Z"/>
  <path d="M136.9,63.16a6.07,6.07,0,0,1-5.44-8.78l25.34-51a6.08,6.08,0,1,1,10.88,5.41l-25.34,51A6.06,6.06,0,0,1,136.9,63.16Z"/>
  <path d="M67.2,200H43.34a6.77,6.77,0,0,1-6.43-5.07l-5.07-21A5.16,5.16,0,0,1,37,167.4H80.32a3,3,0,1,1,0,6.08H38l4.82,20a.82.82,0,0,0,.53.41H67.2a3,3,0,0,1,0,6.08Z"/>
  <path d="M134.51,184.79A13.5,13.5,0,1,1,148,171.3,13.5,13.5,0,0,1,134.51,184.79Zm0-20.91a7.42,7.42,0,1,0,7.42,7.42A7.43,7.43,0,0,0,134.51,163.88Z"/>
</svg>