<svg id="レイヤー_1" data-name="レイヤー 1" xmlns="http://www.w3.org/2000/svg" width="200" height="200" viewBox="0 0 200 200">
  <title>guitar</title>
    <path d="M61.05,200c-17.53,0-28.78-7.66-41-19.93h0C7.27,167.34-.5,155.7.1,137c.58-18.1,17.57-30.48,28.84-34.38a59.79,59.79,0,0,1,11.82-2.49c4.83-.65,9-1.22,12-3.74,4-3.3,5.06-6.25,7.18-12.12A30.25,30.25,0,0,1,85.84,64.45c13-1,21.73,5.08,33.21,16.57s17.53,20.17,16.57,33.21A30.14,30.14,0,0,1,116.05,140c-6.13,2.22-9.08,3.29-12.38,7.28-2.52,3-3.09,7.21-3.74,12a59.49,59.49,0,0,1-2.49,11.82C93.54,182.4,81.16,199.38,63.05,200ZM24.38,175.69c11.86,11.86,22,18.63,38.48,18.08,15-.48,25.38-15,28.73-24.67a54.24,54.24,0,0,0,2.2-10.63c.75-5.53,1.46-10.75,5.11-15.16,4.38-5.28,8.74-6.87,14.78-9.05a24.29,24.29,0,0,0,15.76-20.48c.71-9.6-2.88-16.5-14.77-28.38S95.87,69.93,86.29,70.63A24.19,24.19,0,0,0,65.91,86.12c-2.29,6.31-3.87,10.67-9.16,15-4.4,3.65-9.62,4.36-15.15,5.11A54.24,54.24,0,0,0,31,108.48c-9.65,3.35-24.19,13.75-24.68,28.73-.53,16.53,6.23,26.62,18.09,38.48Z"/>
    <rect x="45.68" y="134.21" width="6.2" height="34.06" transform="translate(-92.66 78.79) rotate(-45)"/>
    <path d="M86.2,130a16.22,16.22,0,1,1,11.47-4.74A16.2,16.2,0,0,1,86.2,130Zm0-26.24a10,10,0,1,0,7.09,2.94A10,10,0,0,0,86.2,103.79Z"/>
    <path d="M117.14,70.52A2.07,2.07,0,0,1,115.68,67l30.83-30.83a2.06,2.06,0,1,1,2.92,2.92L118.6,69.91A2,2,0,0,1,117.14,70.52Z"/>
    <path d="M131.55,84.92a2,2,0,0,1-1.46-.61,2.06,2.06,0,0,1,0-2.92l30.83-30.83a2.06,2.06,0,1,1,2.92,2.92L133,84.31A2,2,0,0,1,131.55,84.92Z"/>
    <path d="M124.34,77.72a2.07,2.07,0,0,1-1.46-3.53l30.83-30.83a2.06,2.06,0,1,1,2.92,2.92L125.8,77.11A2,2,0,0,1,124.34,77.72Z"/>
    <path d="M174,50.8a3.18,3.18,0,0,1-1-.17,3.1,3.1,0,0,1-1.93-3.93c4.51-13.2,15.41-19.94,20.79-22.56a36.71,36.71,0,0,0-6.61-9.47,36.45,36.45,0,0,0-9.46-6.6c-2.62,5.37-9.36,16.28-22.55,20.79a3.1,3.1,0,0,1-2-5.87c14.55-5,20-19.89,20-20L172.3,0l2.94,1.06a44,44,0,0,1,14.39,9.23,44.07,44.07,0,0,1,9.23,14.39l1.07,3-3,1c-.15,0-15.08,5.48-20,20A3.12,3.12,0,0,1,174,50.8Z"/>
</svg>