<svg id="レイヤー_1" data-name="レイヤー 1" xmlns="http://www.w3.org/2000/svg" width="200" height="200" viewBox="0 0 200 200">
  <title>hobby</title>
  <path d="M164.71,195.93a32.29,32.29,0,0,1-9.21-1.35c-22.6-6.79-24.8-21.6-27.83-42.1a215.82,215.82,0,0,0-6-29.75c-7.07-24.49-16-38.84-25.48-54-6-9.61-12.18-19.55-18.32-32.6C68.35,15.81,58,6.27,45.37,6.05,33,5.94,28.47,12.79,25.84,16.94l-.75,1.16C21.9,22.88,13,25.15,12,25.4c-.24.05-5,1.23-5.55,5.27a7.48,7.48,0,0,0,1.62,5.77,5.75,5.75,0,0,0,4.53,1.9H24.68a3,3,0,0,1,1.76.57c6.25,4.46,13.82,3.67,13.9,3.66,5.45-.56,9.12-5,9.15-8.84a3,3,0,0,1,3-3h0a3,3,0,0,1,3,3c-.06,7.36-6.58,14-14.53,14.8a28.14,28.14,0,0,1-17.25-4.18H12.6a11.65,11.65,0,0,1-9.08-4,13.43,13.43,0,0,1-3-10.56c1.12-8.23,9.79-10.26,10.16-10.34,3.07-.75,8.08-2.74,9.43-4.76l.67-1C23.6,9.17,29.48-.32,45.47,0c20,.34,31.2,19.28,37.89,33.5,6,12.74,12.09,22.52,18,32,9.7,15.56,18.86,30.26,26.16,55.55a221.43,221.43,0,0,1,6.15,30.54c3,20.32,4.66,31.52,23.59,37.19a26.75,26.75,0,0,0,23.65-4.33,31.5,31.5,0,0,0,12.71-24.86c.49-32.56-18-54.25-37.67-77.22-4.32-5.06-8.79-10.3-13-15.58-6.57-8.31-9.37-16-9.37-25.53A39.52,39.52,0,0,1,173.07,1.79a3,3,0,0,1,0,6.05,33.46,33.46,0,0,0-33.42,33.42c0,8.22,2.34,14.53,8.06,21.78,4.1,5.2,8.54,10.38,12.82,15.4,19.49,22.81,39.64,46.4,39.12,81.23a37.57,37.57,0,0,1-15.19,29.66A33.36,33.36,0,0,1,164.71,195.93Z"/>
  <path d="M7.45,200A3,3,0,0,1,6,194.35l35.19-19.83a39.41,39.41,0,0,1-12.34-28.9A38.63,38.63,0,0,1,67.39,107a3,3,0,1,1,0,6,32.58,32.58,0,0,0-32.54,32.54,33,33,0,0,0,13.4,26.91,3,3,0,0,1-.28,5.09l-39,22A3.06,3.06,0,0,1,7.45,200Z"/>
  <path d="M26.16,98.53a3,3,0,0,1-1-5.88L37.9,88.24c1.66-3.35,6.87-13.73,12.84-24.55C57.76,51,67.69,51.36,72,53.33a3,3,0,0,1-2.51,5.5C68.68,58.5,61.9,56,56,66.62c-7.15,13-13.2,25.27-13.26,25.4a3,3,0,0,1-1.72,1.52l-13.9,4.82A2.91,2.91,0,0,1,26.16,98.53Z"/>
</svg>