<svg version="1.1" xmlns="http://www.w3.org/2000/svg" width="200" height="200" viewBox="0 0 200 200">
  <path d="M47.945,71.269H71.889a4.009,4.009,0,0,0,3.991-4V51.658H85.7a3,3,0,0,0,0-6.005H75.88V37.569a4.009,4.009,0,0,0-3.991-4H47.945a4.009,4.009,0,0,0-3.991,4v29.7A4.009,4.009,0,0,0,47.945,71.269Zm21.949-6.006H49.94V51.658H69.894V65.263Zm0-25.693v6.082H49.94V39.57H69.894ZM86.787,82.014H33.046a6.192,6.192,0,0,0-6.187,7.5l14.232,75.355a2.993,2.993,0,1,0,5.881-1.119L32.74,88.39a0.457,0.457,0,0,1,.012-0.3,0.451,0.451,0,0,1,.294-0.067H86.787a0.25,0.25,0,0,1,.308.372L72.863,163.746a3,3,0,0,0,2.383,3.509,2.913,2.913,0,0,0,.561.054,3,3,0,0,0,2.937-2.444L92.976,89.511A6.192,6.192,0,0,0,86.787,82.014Zm40.327-10.745h23.944a4.009,4.009,0,0,0,3.99-4V60.2a11.946,11.946,0,0,0,1.759,1.237A12.135,12.135,0,0,0,162.894,63a19.191,19.191,0,0,0,7.367-1.654,3,3,0,0,0-2.307-5.542c-3.39,1.42-6.142,1.561-8.178.414-3.523-1.98-4.4-7.263-4.421-7.391a3.016,3.016,0,0,0-.307-0.92V37.569a4.009,4.009,0,0,0-3.99-4H127.114a4.009,4.009,0,0,0-3.991,4v29.7A4.009,4.009,0,0,0,127.114,71.269Zm2-31.7h19.953V65.263H129.109V39.57Zm43.035,120.243L157.911,84.457a2.993,2.993,0,1,0-5.88,1.118l14.232,75.357a0.448,0.448,0,0,1-.012.3,0.441,0.441,0,0,1-.294.068H112.216a0.25,0.25,0,0,1-.308-0.372L126.14,85.575a2.993,2.993,0,1,0-5.881-1.118l-14.232,75.355a6.192,6.192,0,0,0,6.189,7.5h53.741A6.193,6.193,0,0,0,172.144,159.813Z" transform="translate(0.5 -0.437)"/>
</svg>
