<svg id="レイヤー_1" data-name="レイヤー 1" xmlns="http://www.w3.org/2000/svg" width="200" height="200" viewBox="0 0 200 200">
  <title>lady</title>
  <path d="M110.11,6.06V32H89.9V6.06h20.21m2-6.06H87.87a4.05,4.05,0,0,0-4,4V34a4.06,4.06,0,0,0,4,4h24.26a4.06,4.06,0,0,0,4-4V4a4.05,4.05,0,0,0-4-4Z"/>
  <path d="M43.73,200a3.07,3.07,0,0,1-.79-.11,3,3,0,0,1-2.14-3.71L77.56,59.37c.9-3.33,3-3.84,3.92-3.9s3.08.13,4.45,3.29c0,.11,4.89,10.92,14.07,10.92s14-10.81,14.08-10.92c1.36-3.16,3.56-3.36,4.44-3.29s3,.57,3.92,3.91l36.76,136.8a3,3,0,0,1-5.86,1.57L117.62,64.82c-2.8,4.32-8.56,10.92-17.62,10.92s-14.82-6.6-17.62-10.92L46.66,197.75A3,3,0,0,1,43.73,200Z"/>
</svg>