<svg version="1.1" xmlns="http://www.w3.org/2000/svg" viewBox="0 0 100 100">
  <title>luxury</title><path d="M4.2,13.8c7.4,1.5,8.2,2.3,9.6,9.7a1.5,1.5,0,0,0,3,0c1.5-7.4,2.3-8.2,9.6-9.7a1.5,1.5,0,0,0,1.2-1.5,1.4,1.4,0,0,0-1.2-1.4c-7.3-1.5-8.1-2.3-9.6-9.7a1.5,1.5,0,0,0-3,0c-1.4,7.4-2.2,8.2-9.6,9.7A1.4,1.4,0,0,0,3,12.3,1.5,1.5,0,0,0,4.2,13.8ZM15.3,7.2a8.3,8.3,0,0,0,5.1,5.1,8.6,8.6,0,0,0-5.1,5.1,8.3,8.3,0,0,0-5.1-5.1A8.1,8.1,0,0,0,15.3,7.2Z"/><path d="M66.8,67.6c-7.3-1.5-8.1-2.3-9.6-9.7a1.5,1.5,0,0,0-3,0c-1.4,7.4-2.2,8.2-9.6,9.7a1.4,1.4,0,0,0-1.2,1.5,1.4,1.4,0,0,0,1.2,1.4c7.4,1.5,8.2,2.3,9.6,9.7a1.5,1.5,0,0,0,3,0c1.5-7.4,2.3-8.2,9.6-9.7A1.4,1.4,0,0,0,68,69.1,1.4,1.4,0,0,0,66.8,67.6ZM55.7,74.2a8.1,8.1,0,0,0-5.1-5.1,8.5,8.5,0,0,0,5.1-5.2,8.7,8.7,0,0,0,5.1,5.2A8.3,8.3,0,0,0,55.7,74.2Z"/><path d="M75.4,19c4.1.8,4.3,1.1,5.2,5.2A1.4,1.4,0,0,0,82,25.4a1.4,1.4,0,0,0,1.5-1.2c.8-4.1,1.1-4.4,5.2-5.2a1.4,1.4,0,0,0,1.2-1.5,1.4,1.4,0,0,0-1.2-1.4c-4.1-.9-4.4-1.1-5.2-5.2A1.4,1.4,0,0,0,82,9.7a1.4,1.4,0,0,0-1.4,1.2c-.9,4.1-1.1,4.3-5.2,5.2a1.4,1.4,0,0,0-1.2,1.4A1.4,1.4,0,0,0,75.4,19ZM82,15.9a5.2,5.2,0,0,0,1.7,1.6A6.9,6.9,0,0,0,82,19.2a5.2,5.2,0,0,0-1.6-1.7A4.1,4.1,0,0,0,82,15.9Z"/><path d="M96.9,30.1h-29L62.9,8A4.2,4.2,0,0,0,59,4.9H41A4.2,4.2,0,0,0,37.1,8l-5,22.1H3.1A2.1,2.1,0,0,0,1,33L16.3,87.4a4.1,4.1,0,0,0,3.8,2.9H79.9a4.1,4.1,0,0,0,3.8-2.9L99,33A2.1,2.1,0,0,0,96.9,30.1ZM40,8.7a1.2,1.2,0,0,1,1-.8H59a1.2,1.2,0,0,1,1,.8l4.8,21.4H35.1ZM80.8,86.6a1.3,1.3,0,0,1-.9.7H20.1a1.3,1.3,0,0,1-.9-.7L4.1,33.1H31.4L20.6,81a1.5,1.5,0,0,0,1.1,1.8H22a1.5,1.5,0,0,0,1.5-1.2l11-48.6H48.6V41a1.5,1.5,0,0,0,1.5,1.5A1.5,1.5,0,0,0,51.6,41V33.1H65.5L76.4,81.6a1.5,1.5,0,0,0,1.8,1.1,1.6,1.6,0,0,0,1.2-1.8L68.6,33.1H95.9Z"/></svg>