<svg id="レイヤー_1" data-name="レイヤー 1" xmlns="http://www.w3.org/2000/svg" width="200" height="200" viewBox="0 0 200 200">
  <title>man</title>
  <path d="M110.11,6.06V32H89.89V6.06h20.22m2-6.06H87.87a4.05,4.05,0,0,0-4,4V34a4.06,4.06,0,0,0,4,4h24.26a4.06,4.06,0,0,0,4-4V4a4.05,4.05,0,0,0-4-4Z"/>
  <path d="M118.46,200a3.13,3.13,0,0,1-.79-.11,3,3,0,0,1-2.14-3.71L152.3,59.37l-30-.08a3.67,3.67,0,0,0-2.84,1.87l-3.67,8.62a9.64,9.64,0,0,1-8.41,5.57H92.61a9.64,9.64,0,0,1-8.41-5.57l-3.67-8.62a3.67,3.67,0,0,0-2.84-1.87H47.77l36.7,136.89a3,3,0,0,1-5.86,1.57L41.85,61a6,6,0,0,1,5.92-7.73H77.69a9.65,9.65,0,0,1,8.42,5.57l3.67,8.62a3.64,3.64,0,0,0,2.83,1.87h14.78a3.66,3.66,0,0,0,2.83-1.87l3.67-8.62a9.65,9.65,0,0,1,8.42-5.57h29.92A6,6,0,0,1,158.15,61l-36.76,136.8A3,3,0,0,1,118.46,200Z"/>
</svg>