<svg id="レイヤー_1" data-name="レイヤー 1" xmlns="http://www.w3.org/2000/svg" width="200" height="200" viewBox="0 0 200 200">
  <title>necklace</title>
  <circle cx="8.06" cy="10.5" r="8.06"/>
  <circle cx="24.17" cy="38.28" r="8.06"/>
  <circle cx="40.28" cy="66.05" r="8.06"/>
  <circle cx="56.39" cy="93.83" r="8.06"/>
  <circle cx="72.5" cy="121.61" r="8.06"/>
  <circle cx="191.94" cy="10.5" r="8.06"/>
  <circle cx="175.83" cy="38.28" r="8.06"/>
  <circle cx="159.72" cy="66.05" r="8.06"/>
  <circle cx="143.61" cy="93.83" r="8.06"/>
  <circle cx="127.5" cy="121.61" r="8.06"/>
  <path d="M100,197.56a9.05,9.05,0,0,1-7.63-4.16L80,174.19a9.11,9.11,0,0,1,0-9.81l12.35-19.2a9.08,9.08,0,0,1,15.26,0L120,164.38a9.11,9.11,0,0,1,0,9.81h0L107.63,193.4A9.05,9.05,0,0,1,100,197.56Zm0-49.38a1.86,1.86,0,0,0-1.6.88L86,168.26a1.92,1.92,0,0,0,0,2.06l12.35,19.2a1.91,1.91,0,0,0,3.22,0L114,170.32a1.92,1.92,0,0,0,0-2.06l-12.35-19.2A1.88,1.88,0,0,0,100,148.18Zm17,24.08h0Z"/>
</svg>