<svg id="レイヤー_1" data-name="レイヤー 1" xmlns="http://www.w3.org/2000/svg" width="200" height="200" viewBox="0 0 200 200">
  <title>outdoor</title>
  <path d="M180.52,180.8a3,3,0,0,1-2.61-1.49L86.23,23.77a3,3,0,0,1,5.22-3.08l91.68,155.54a3,3,0,0,1-2.61,4.57Z"/>
  <path d="M19.48,180.8a3,3,0,0,1-2.6-4.59L109.8,20.68a3,3,0,1,1,5.2,3.11L22.08,179.32A3,3,0,0,1,19.48,180.8Z"/>
  <path d="M197,180.8H3a3,3,0,0,1,0-6.07H197a3,3,0,0,1,0,6.07Z"/>
  <path d="M127.6,179.82A3,3,0,0,1,125,178.3l-22-38.18a3.37,3.37,0,0,0-5.84,0L75,178.3a3,3,0,0,1-5.25-3l22-38.19a9.44,9.44,0,0,1,16.34,0l22,38.19a3,3,0,0,1-1.11,4.14A3,3,0,0,1,127.6,179.82Z"/>
</svg>