<svg id="レイヤー_1" data-name="レイヤー 1" xmlns="http://www.w3.org/2000/svg" width="200" height="200" viewBox="0 0 200 200">
  <title>pc</title>
  <path d="M194,30v104.8H6V30H194m2-6H4a4,4,0,0,0-4,4v108.8a4,4,0,0,0,4,4H196a4,4,0,0,0,4-4V28a4,4,0,0,0-4-4Z"/>
  <path d="M144,162v8H56v-8h88m1-6H55a5,5,0,0,0-5,5v10a5,5,0,0,0,5,5h90a5,5,0,0,0,5-5V161a5,5,0,0,0-5-5Z"/>
  <path d="M180,44.41v76H20v-76H180m2-6H18a4,4,0,0,0-4,4v80a4,4,0,0,0,4,4H182a4,4,0,0,0,4-4v-80a4,4,0,0,0-4-4Z"/>
  <rect x="86.42" y="138.12" width="6" height="18.78"/>
  <rect x="107.64" y="138.12" width="6" height="18.78"/>
</svg>