<svg id="レイヤー_1" data-name="レイヤー 1" xmlns="http://www.w3.org/2000/svg" width="200" height="200" viewBox="0 0 200 200">
  <title>phone</title>
  <path d="M144,6a10,10,0,0,1,10,10V184a10,10,0,0,1-10,10H56a10,10,0,0,1-10-10V16A10,10,0,0,1,56,6h88m0-6H56A16,16,0,0,0,40,16V184a16,16,0,0,0,16,16h88a16,16,0,0,0,16-16V16A16,16,0,0,0,144,0Z"/>
  <path d="M144,6a10,10,0,0,1,10,10V184a10,10,0,0,1-10,10H56a10,10,0,0,1-10-10V16A10,10,0,0,1,56,6h88m0-6H56A16,16,0,0,0,40,16V184a16,16,0,0,0,16,16h88a16,16,0,0,0,16-16V16A16,16,0,0,0,144,0Z"/>
  <path d="M119.73,20.59H80.27a2.32,2.32,0,0,1-2.14-1.41L71.37,3.32h57.26l-6.76,15.86A2.32,2.32,0,0,1,119.73,20.59Z"/>
  <path d="M68.83,165.12v4.12a4.12,4.12,0,1,1-4.12-4.12h4.12m3.88,4.12a8,8,0,0,0-8-8h0a8,8,0,1,0,0,16h0A8,8,0,0,0,72.71,169.24Z"/>
  <path d="M94.36,165.12v4.12a4.12,4.12,0,1,1-4.12-4.12h4.12m3.88,4.12a8,8,0,1,0-8,8A8,8,0,0,0,98.24,169.24Z"/>
  <path d="M116.89,165.12v4.12a4.13,4.13,0,1,1-4.13-4.12h4.13m3.87,4.12a8,8,0,1,0-8,8A8,8,0,0,0,120.76,169.24Z"/>
  <path d="M139.41,165.12v4.12a4.12,4.12,0,1,1-4.12-4.12h4.12m3.88,4.12a8,8,0,1,0-8,8A8,8,0,0,0,143.29,169.24Z"/>
</svg>