<svg id="レイヤー_1" data-name="レイヤー 1" xmlns="http://www.w3.org/2000/svg" width="200" height="200" viewBox="0 0 200 200">
  <title>sports</title>
  <path d="M120.76,6.06V32H100.55V6.06h20.21m2-6.06H98.53a4.05,4.05,0,0,0-4,4V34a4.05,4.05,0,0,0,4,4h24.26a4.05,4.05,0,0,0,4-4V4a4.05,4.05,0,0,0-4-4Z"/>
  <path d="M135.1,167.14a3.13,3.13,0,0,1-.79-.11,3,3,0,0,1-2.14-3.71l11.69-43.5-27.26-.09a6,6,0,0,1-5.91-7.72L126,55.47a3,3,0,1,1,5.85,1.58l-15.3,56.54,27.26.08a6,6,0,0,1,5.92,7.72L138,164.89A3,3,0,0,1,135.1,167.14Z"/>
  <path d="M52.18,200a2.71,2.71,0,0,1-.8-.11,3,3,0,0,1-2.13-3.72L87.47,55.46a3,3,0,1,1,5.85,1.59L55.1,197.76A3,3,0,0,1,52.18,200Z"/>
  <path d="M35,91a3,3,0,0,1-.78-.1,3,3,0,0,1-2.15-3.71L39.5,59.38a8.61,8.61,0,0,1,8-6.15h81.4a3,3,0,1,1,0,6.06H47.51a2.57,2.57,0,0,0-2.15,1.65L38,88.71A3,3,0,0,1,35,91Z"/>
  <path d="M154.33,90.57A3,3,0,0,1,152,89.44L126.56,58.17a3,3,0,0,1,4.7-3.82L152.93,81,162,46.72a3,3,0,0,1,5.86,1.56l-10.63,40A3,3,0,0,1,155,90.5,3.48,3.48,0,0,1,154.33,90.57Z"/>
</svg>